<?xml version="1.0" encoding="utf-8" standalone="no"?>
<!DOCTYPE svg PUBLIC "-//W3C//DTD SVG 1.1//EN"
  "http://www.w3.org/Graphics/SVG/1.1/DTD/svg11.dtd">
<!-- Created with matplotlib (http://matplotlib.org/) -->
<svg height="360pt" version="1.1" viewBox="0 0 720 360" width="720pt" xmlns="http://www.w3.org/2000/svg" xmlns:xlink="http://www.w3.org/1999/xlink">
 <defs>
  <style type="text/css">
*{stroke-linecap:butt;stroke-linejoin:round;}
  </style>
 </defs>
 <g id="figure_1">
  <g id="patch_1">
   <path d="M 0 360 
L 720 360 
L 720 0 
L 0 0 
z
" style="fill:#ffffff;"/>
  </g>
  <g id="axes_1">
   <g id="patch_2">
    <path d="M 44.57 295.14125 
L 327.503 295.14125 
L 327.503 26.88 
L 44.57 26.88 
z
" style="fill:#ffffff;"/>
   </g>
   <g id="patch_3">
    <path clip-path="url(#p8ab374b021)" d="M 57.430591 295.14125 
L 71.524389 295.14125 
L 71.524389 106.597373 
L 57.430591 106.597373 
z
" style="fill:#aedea7;"/>
   </g>
   <g id="patch_4">
    <path clip-path="url(#p8ab374b021)" d="M 92.665087 295.14125 
L 106.758885 295.14125 
L 106.758885 136.665836 
L 92.665087 136.665836 
z
" style="fill:#aedea7;"/>
   </g>
   <g id="patch_5">
    <path clip-path="url(#p8ab374b021)" d="M 127.899582 295.14125 
L 141.99338 295.14125 
L 141.99338 137.250323 
L 127.899582 137.250323 
z
" style="fill:#aedea7;"/>
   </g>
   <g id="patch_6">
    <path clip-path="url(#p8ab374b021)" d="M 163.134078 295.14125 
L 177.227876 295.14125 
L 177.227876 141.71068 
L 163.134078 141.71068 
z
" style="fill:#aedea7;"/>
   </g>
   <g id="patch_7">
    <path clip-path="url(#p8ab374b021)" d="M 198.368573 295.14125 
L 212.462372 295.14125 
L 212.462372 162.251659 
L 198.368573 162.251659 
z
" style="fill:#aedea7;"/>
   </g>
   <g id="patch_8">
    <path clip-path="url(#p8ab374b021)" d="M 233.603069 295.14125 
L 247.696867 295.14125 
L 247.696867 176.456502 
L 233.603069 176.456502 
z
" style="fill:#aedea7;"/>
   </g>
   <g id="patch_9">
    <path clip-path="url(#p8ab374b021)" d="M 286.454813 295.14125 
L 300.548611 295.14125 
L 300.548611 148.916386 
L 286.454813 148.916386 
z
" style="fill:#aedea7;"/>
   </g>
   <g id="patch_10">
    <path clip-path="url(#p8ab374b021)" d="M 71.524389 295.14125 
L 85.618187 295.14125 
L 85.618187 186.031095 
L 71.524389 186.031095 
z
" style="fill:#37a055;"/>
   </g>
   <g id="patch_11">
    <path clip-path="url(#p8ab374b021)" d="M 106.758885 295.14125 
L 120.852683 295.14125 
L 120.852683 194.123142 
L 106.758885 194.123142 
z
" style="fill:#37a055;"/>
   </g>
   <g id="patch_12">
    <path clip-path="url(#p8ab374b021)" d="M 141.99338 295.14125 
L 156.087179 295.14125 
L 156.087179 193.934318 
L 141.99338 193.934318 
z
" style="fill:#37a055;"/>
   </g>
   <g id="patch_13">
    <path clip-path="url(#p8ab374b021)" d="M 177.227876 295.14125 
L 191.321674 295.14125 
L 191.321674 208.349868 
L 177.227876 208.349868 
z
" style="fill:#37a055;"/>
   </g>
   <g id="patch_14">
    <path clip-path="url(#p8ab374b021)" d="M 212.462372 295.14125 
L 226.55617 295.14125 
L 226.55617 213.710162 
L 212.462372 213.710162 
z
" style="fill:#37a055;"/>
   </g>
   <g id="patch_15">
    <path clip-path="url(#p8ab374b021)" d="M 247.696867 295.14125 
L 261.790666 295.14125 
L 261.790666 223.772285 
L 247.696867 223.772285 
z
" style="fill:#37a055;"/>
   </g>
   <g id="patch_16">
    <path clip-path="url(#p8ab374b021)" d="M 300.548611 295.14125 
L 314.642409 295.14125 
L 314.642409 204.435175 
L 300.548611 204.435175 
z
" style="fill:#37a055;"/>
   </g>
   <g id="matplotlib.axis_1">
    <g id="xtick_1">
     <g id="line2d_1">
      <defs>
       <path d="M 0 0 
L 0 3.5 
" id="m8f1772f7f9" style="stroke:#1a1a1a;stroke-width:0.8;"/>
      </defs>
      <g>
       <use style="fill:#1a1a1a;stroke:#1a1a1a;stroke-width:0.8;" x="71.524389" xlink:href="#m8f1772f7f9" y="295.14125"/>
      </g>
     </g>
     <g id="text_1">
      <!-- Paris -->
      <defs>
       <path d="M 19.671875 64.796875 
L 19.671875 37.40625 
L 32.078125 37.40625 
Q 38.96875 37.40625 42.71875 40.96875 
Q 46.484375 44.53125 46.484375 51.125 
Q 46.484375 57.671875 42.71875 61.234375 
Q 38.96875 64.796875 32.078125 64.796875 
z
M 9.8125 72.90625 
L 32.078125 72.90625 
Q 44.34375 72.90625 50.609375 67.359375 
Q 56.890625 61.8125 56.890625 51.125 
Q 56.890625 40.328125 50.609375 34.8125 
Q 44.34375 29.296875 32.078125 29.296875 
L 19.671875 29.296875 
L 19.671875 0 
L 9.8125 0 
z
" id="DejaVuSans-50"/>
       <path d="M 34.28125 27.484375 
Q 23.390625 27.484375 19.1875 25 
Q 14.984375 22.515625 14.984375 16.5 
Q 14.984375 11.71875 18.140625 8.90625 
Q 21.296875 6.109375 26.703125 6.109375 
Q 34.1875 6.109375 38.703125 11.40625 
Q 43.21875 16.703125 43.21875 25.484375 
L 43.21875 27.484375 
z
M 52.203125 31.203125 
L 52.203125 0 
L 43.21875 0 
L 43.21875 8.296875 
Q 40.140625 3.328125 35.546875 0.953125 
Q 30.953125 -1.421875 24.3125 -1.421875 
Q 15.921875 -1.421875 10.953125 3.296875 
Q 6 8.015625 6 15.921875 
Q 6 25.140625 12.171875 29.828125 
Q 18.359375 34.515625 30.609375 34.515625 
L 43.21875 34.515625 
L 43.21875 35.40625 
Q 43.21875 41.609375 39.140625 45 
Q 35.0625 48.390625 27.6875 48.390625 
Q 23 48.390625 18.546875 47.265625 
Q 14.109375 46.140625 10.015625 43.890625 
L 10.015625 52.203125 
Q 14.9375 54.109375 19.578125 55.046875 
Q 24.21875 56 28.609375 56 
Q 40.484375 56 46.34375 49.84375 
Q 52.203125 43.703125 52.203125 31.203125 
z
" id="DejaVuSans-61"/>
       <path d="M 41.109375 46.296875 
Q 39.59375 47.171875 37.8125 47.578125 
Q 36.03125 48 33.890625 48 
Q 26.265625 48 22.1875 43.046875 
Q 18.109375 38.09375 18.109375 28.8125 
L 18.109375 0 
L 9.078125 0 
L 9.078125 54.6875 
L 18.109375 54.6875 
L 18.109375 46.1875 
Q 20.953125 51.171875 25.484375 53.578125 
Q 30.03125 56 36.53125 56 
Q 37.453125 56 38.578125 55.875 
Q 39.703125 55.765625 41.0625 55.515625 
z
" id="DejaVuSans-72"/>
       <path d="M 9.421875 54.6875 
L 18.40625 54.6875 
L 18.40625 0 
L 9.421875 0 
z
M 9.421875 75.984375 
L 18.40625 75.984375 
L 18.40625 64.59375 
L 9.421875 64.59375 
z
" id="DejaVuSans-69"/>
       <path d="M 44.28125 53.078125 
L 44.28125 44.578125 
Q 40.484375 46.53125 36.375 47.5 
Q 32.28125 48.484375 27.875 48.484375 
Q 21.1875 48.484375 17.84375 46.4375 
Q 14.5 44.390625 14.5 40.28125 
Q 14.5 37.15625 16.890625 35.375 
Q 19.28125 33.59375 26.515625 31.984375 
L 29.59375 31.296875 
Q 39.15625 29.25 43.1875 25.515625 
Q 47.21875 21.78125 47.21875 15.09375 
Q 47.21875 7.46875 41.1875 3.015625 
Q 35.15625 -1.421875 24.609375 -1.421875 
Q 20.21875 -1.421875 15.453125 -0.5625 
Q 10.6875 0.296875 5.421875 2 
L 5.421875 11.28125 
Q 10.40625 8.6875 15.234375 7.390625 
Q 20.0625 6.109375 24.8125 6.109375 
Q 31.15625 6.109375 34.5625 8.28125 
Q 37.984375 10.453125 37.984375 14.40625 
Q 37.984375 18.0625 35.515625 20.015625 
Q 33.0625 21.96875 24.703125 23.78125 
L 21.578125 24.515625 
Q 13.234375 26.265625 9.515625 29.90625 
Q 5.8125 33.546875 5.8125 39.890625 
Q 5.8125 47.609375 11.28125 51.796875 
Q 16.75 56 26.8125 56 
Q 31.78125 56 36.171875 55.265625 
Q 40.578125 54.546875 44.28125 53.078125 
z
" id="DejaVuSans-73"/>
      </defs>
      <g style="fill:#1a1a1a;" transform="translate(74.283764 326.39125)rotate(-90)scale(0.1 -0.1)">
       <use xlink:href="#DejaVuSans-50"/>
       <use x="60.240234" xlink:href="#DejaVuSans-61"/>
       <use x="121.519531" xlink:href="#DejaVuSans-72"/>
       <use x="162.632812" xlink:href="#DejaVuSans-69"/>
       <use x="190.416016" xlink:href="#DejaVuSans-73"/>
      </g>
     </g>
    </g>
    <g id="xtick_2">
     <g id="line2d_2">
      <g>
       <use style="fill:#1a1a1a;stroke:#1a1a1a;stroke-width:0.8;" x="106.758885" xlink:href="#m8f1772f7f9" y="295.14125"/>
      </g>
     </g>
     <g id="text_2">
      <!-- New York -->
      <defs>
       <path d="M 9.8125 72.90625 
L 23.09375 72.90625 
L 55.421875 11.921875 
L 55.421875 72.90625 
L 64.984375 72.90625 
L 64.984375 0 
L 51.703125 0 
L 19.390625 60.984375 
L 19.390625 0 
L 9.8125 0 
z
" id="DejaVuSans-4e"/>
       <path d="M 56.203125 29.59375 
L 56.203125 25.203125 
L 14.890625 25.203125 
Q 15.484375 15.921875 20.484375 11.0625 
Q 25.484375 6.203125 34.421875 6.203125 
Q 39.59375 6.203125 44.453125 7.46875 
Q 49.3125 8.734375 54.109375 11.28125 
L 54.109375 2.78125 
Q 49.265625 0.734375 44.1875 -0.34375 
Q 39.109375 -1.421875 33.890625 -1.421875 
Q 20.796875 -1.421875 13.15625 6.1875 
Q 5.515625 13.8125 5.515625 26.8125 
Q 5.515625 40.234375 12.765625 48.109375 
Q 20.015625 56 32.328125 56 
Q 43.359375 56 49.78125 48.890625 
Q 56.203125 41.796875 56.203125 29.59375 
z
M 47.21875 32.234375 
Q 47.125 39.59375 43.09375 43.984375 
Q 39.0625 48.390625 32.421875 48.390625 
Q 24.90625 48.390625 20.390625 44.140625 
Q 15.875 39.890625 15.1875 32.171875 
z
" id="DejaVuSans-65"/>
       <path d="M 4.203125 54.6875 
L 13.1875 54.6875 
L 24.421875 12.015625 
L 35.59375 54.6875 
L 46.1875 54.6875 
L 57.421875 12.015625 
L 68.609375 54.6875 
L 77.59375 54.6875 
L 63.28125 0 
L 52.6875 0 
L 40.921875 44.828125 
L 29.109375 0 
L 18.5 0 
z
" id="DejaVuSans-77"/>
       <path id="DejaVuSans-20"/>
       <path d="M -0.203125 72.90625 
L 10.40625 72.90625 
L 30.609375 42.921875 
L 50.6875 72.90625 
L 61.28125 72.90625 
L 35.5 34.71875 
L 35.5 0 
L 25.59375 0 
L 25.59375 34.71875 
z
" id="DejaVuSans-59"/>
       <path d="M 30.609375 48.390625 
Q 23.390625 48.390625 19.1875 42.75 
Q 14.984375 37.109375 14.984375 27.296875 
Q 14.984375 17.484375 19.15625 11.84375 
Q 23.34375 6.203125 30.609375 6.203125 
Q 37.796875 6.203125 41.984375 11.859375 
Q 46.1875 17.53125 46.1875 27.296875 
Q 46.1875 37.015625 41.984375 42.703125 
Q 37.796875 48.390625 30.609375 48.390625 
z
M 30.609375 56 
Q 42.328125 56 49.015625 48.375 
Q 55.71875 40.765625 55.71875 27.296875 
Q 55.71875 13.875 49.015625 6.21875 
Q 42.328125 -1.421875 30.609375 -1.421875 
Q 18.84375 -1.421875 12.171875 6.21875 
Q 5.515625 13.875 5.515625 27.296875 
Q 5.515625 40.765625 12.171875 48.375 
Q 18.84375 56 30.609375 56 
z
" id="DejaVuSans-6f"/>
       <path d="M 9.078125 75.984375 
L 18.109375 75.984375 
L 18.109375 31.109375 
L 44.921875 54.6875 
L 56.390625 54.6875 
L 27.390625 29.109375 
L 57.625 0 
L 45.90625 0 
L 18.109375 26.703125 
L 18.109375 0 
L 9.078125 0 
z
" id="DejaVuSans-6b"/>
      </defs>
      <g style="fill:#1a1a1a;" transform="translate(109.51826 349.239688)rotate(-90)scale(0.1 -0.1)">
       <use xlink:href="#DejaVuSans-4e"/>
       <use x="74.804688" xlink:href="#DejaVuSans-65"/>
       <use x="136.328125" xlink:href="#DejaVuSans-77"/>
       <use x="218.115234" xlink:href="#DejaVuSans-20"/>
       <use x="249.902344" xlink:href="#DejaVuSans-59"/>
       <use x="310.783203" xlink:href="#DejaVuSans-6f"/>
       <use x="371.964844" xlink:href="#DejaVuSans-72"/>
       <use x="413.078125" xlink:href="#DejaVuSans-6b"/>
      </g>
     </g>
    </g>
    <g id="xtick_3">
     <g id="line2d_3">
      <g>
       <use style="fill:#1a1a1a;stroke:#1a1a1a;stroke-width:0.8;" x="141.99338" xlink:href="#m8f1772f7f9" y="295.14125"/>
      </g>
     </g>
     <g id="text_3">
      <!-- Madrid -->
      <defs>
       <path d="M 9.8125 72.90625 
L 24.515625 72.90625 
L 43.109375 23.296875 
L 61.8125 72.90625 
L 76.515625 72.90625 
L 76.515625 0 
L 66.890625 0 
L 66.890625 64.015625 
L 48.09375 14.015625 
L 38.1875 14.015625 
L 19.390625 64.015625 
L 19.390625 0 
L 9.8125 0 
z
" id="DejaVuSans-4d"/>
       <path d="M 45.40625 46.390625 
L 45.40625 75.984375 
L 54.390625 75.984375 
L 54.390625 0 
L 45.40625 0 
L 45.40625 8.203125 
Q 42.578125 3.328125 38.25 0.953125 
Q 33.9375 -1.421875 27.875 -1.421875 
Q 17.96875 -1.421875 11.734375 6.484375 
Q 5.515625 14.40625 5.515625 27.296875 
Q 5.515625 40.1875 11.734375 48.09375 
Q 17.96875 56 27.875 56 
Q 33.9375 56 38.25 53.625 
Q 42.578125 51.265625 45.40625 46.390625 
z
M 14.796875 27.296875 
Q 14.796875 17.390625 18.875 11.75 
Q 22.953125 6.109375 30.078125 6.109375 
Q 37.203125 6.109375 41.296875 11.75 
Q 45.40625 17.390625 45.40625 27.296875 
Q 45.40625 37.203125 41.296875 42.84375 
Q 37.203125 48.484375 30.078125 48.484375 
Q 22.953125 48.484375 18.875 42.84375 
Q 14.796875 37.203125 14.796875 27.296875 
z
" id="DejaVuSans-64"/>
      </defs>
      <g style="fill:#1a1a1a;" transform="translate(144.752755 336.483438)rotate(-90)scale(0.1 -0.1)">
       <use xlink:href="#DejaVuSans-4d"/>
       <use x="86.279297" xlink:href="#DejaVuSans-61"/>
       <use x="147.558594" xlink:href="#DejaVuSans-64"/>
       <use x="211.035156" xlink:href="#DejaVuSans-72"/>
       <use x="252.148438" xlink:href="#DejaVuSans-69"/>
       <use x="279.931641" xlink:href="#DejaVuSans-64"/>
      </g>
     </g>
    </g>
    <g id="xtick_4">
     <g id="line2d_4">
      <g>
       <use style="fill:#1a1a1a;stroke:#1a1a1a;stroke-width:0.8;" x="177.227876" xlink:href="#m8f1772f7f9" y="295.14125"/>
      </g>
     </g>
     <g id="text_4">
      <!-- Montreal -->
      <defs>
       <path d="M 54.890625 33.015625 
L 54.890625 0 
L 45.90625 0 
L 45.90625 32.71875 
Q 45.90625 40.484375 42.875 44.328125 
Q 39.84375 48.1875 33.796875 48.1875 
Q 26.515625 48.1875 22.3125 43.546875 
Q 18.109375 38.921875 18.109375 30.90625 
L 18.109375 0 
L 9.078125 0 
L 9.078125 54.6875 
L 18.109375 54.6875 
L 18.109375 46.1875 
Q 21.34375 51.125 25.703125 53.5625 
Q 30.078125 56 35.796875 56 
Q 45.21875 56 50.046875 50.171875 
Q 54.890625 44.34375 54.890625 33.015625 
z
" id="DejaVuSans-6e"/>
       <path d="M 18.3125 70.21875 
L 18.3125 54.6875 
L 36.8125 54.6875 
L 36.8125 47.703125 
L 18.3125 47.703125 
L 18.3125 18.015625 
Q 18.3125 11.328125 20.140625 9.421875 
Q 21.96875 7.515625 27.59375 7.515625 
L 36.8125 7.515625 
L 36.8125 0 
L 27.59375 0 
Q 17.1875 0 13.234375 3.875 
Q 9.28125 7.765625 9.28125 18.015625 
L 9.28125 47.703125 
L 2.6875 47.703125 
L 2.6875 54.6875 
L 9.28125 54.6875 
L 9.28125 70.21875 
z
" id="DejaVuSans-74"/>
       <path d="M 9.421875 75.984375 
L 18.40625 75.984375 
L 18.40625 0 
L 9.421875 0 
z
" id="DejaVuSans-6c"/>
      </defs>
      <g style="fill:#1a1a1a;" transform="translate(179.987251 346.313125)rotate(-90)scale(0.1 -0.1)">
       <use xlink:href="#DejaVuSans-4d"/>
       <use x="86.279297" xlink:href="#DejaVuSans-6f"/>
       <use x="147.460938" xlink:href="#DejaVuSans-6e"/>
       <use x="210.839844" xlink:href="#DejaVuSans-74"/>
       <use x="250.048828" xlink:href="#DejaVuSans-72"/>
       <use x="291.130859" xlink:href="#DejaVuSans-65"/>
       <use x="352.654297" xlink:href="#DejaVuSans-61"/>
       <use x="413.933594" xlink:href="#DejaVuSans-6c"/>
      </g>
     </g>
    </g>
    <g id="xtick_5">
     <g id="line2d_5">
      <g>
       <use style="fill:#1a1a1a;stroke:#1a1a1a;stroke-width:0.8;" x="212.462372" xlink:href="#m8f1772f7f9" y="295.14125"/>
      </g>
     </g>
     <g id="text_5">
      <!-- Sydney -->
      <defs>
       <path d="M 53.515625 70.515625 
L 53.515625 60.890625 
Q 47.90625 63.578125 42.921875 64.890625 
Q 37.9375 66.21875 33.296875 66.21875 
Q 25.25 66.21875 20.875 63.09375 
Q 16.5 59.96875 16.5 54.203125 
Q 16.5 49.359375 19.40625 46.890625 
Q 22.3125 44.4375 30.421875 42.921875 
L 36.375 41.703125 
Q 47.40625 39.59375 52.65625 34.296875 
Q 57.90625 29 57.90625 20.125 
Q 57.90625 9.515625 50.796875 4.046875 
Q 43.703125 -1.421875 29.984375 -1.421875 
Q 24.8125 -1.421875 18.96875 -0.25 
Q 13.140625 0.921875 6.890625 3.21875 
L 6.890625 13.375 
Q 12.890625 10.015625 18.65625 8.296875 
Q 24.421875 6.59375 29.984375 6.59375 
Q 38.421875 6.59375 43.015625 9.90625 
Q 47.609375 13.234375 47.609375 19.390625 
Q 47.609375 24.75 44.3125 27.78125 
Q 41.015625 30.8125 33.5 32.328125 
L 27.484375 33.5 
Q 16.453125 35.6875 11.515625 40.375 
Q 6.59375 45.0625 6.59375 53.421875 
Q 6.59375 63.09375 13.40625 68.65625 
Q 20.21875 74.21875 32.171875 74.21875 
Q 37.3125 74.21875 42.625 73.28125 
Q 47.953125 72.359375 53.515625 70.515625 
z
" id="DejaVuSans-53"/>
       <path d="M 32.171875 -5.078125 
Q 28.375 -14.84375 24.75 -17.8125 
Q 21.140625 -20.796875 15.09375 -20.796875 
L 7.90625 -20.796875 
L 7.90625 -13.28125 
L 13.1875 -13.28125 
Q 16.890625 -13.28125 18.9375 -11.515625 
Q 21 -9.765625 23.484375 -3.21875 
L 25.09375 0.875 
L 2.984375 54.6875 
L 12.5 54.6875 
L 29.59375 11.921875 
L 46.6875 54.6875 
L 56.203125 54.6875 
z
" id="DejaVuSans-79"/>
      </defs>
      <g style="fill:#1a1a1a;" transform="translate(215.221747 339.16625)rotate(-90)scale(0.1 -0.1)">
       <use xlink:href="#DejaVuSans-53"/>
       <use x="63.476562" xlink:href="#DejaVuSans-79"/>
       <use x="122.65625" xlink:href="#DejaVuSans-64"/>
       <use x="186.132812" xlink:href="#DejaVuSans-6e"/>
       <use x="249.511719" xlink:href="#DejaVuSans-65"/>
       <use x="311.035156" xlink:href="#DejaVuSans-79"/>
      </g>
     </g>
    </g>
    <g id="xtick_6">
     <g id="line2d_6">
      <g>
       <use style="fill:#1a1a1a;stroke:#1a1a1a;stroke-width:0.8;" x="247.696867" xlink:href="#m8f1772f7f9" y="295.14125"/>
      </g>
     </g>
     <g id="text_6">
      <!-- Boston -->
      <defs>
       <path d="M 19.671875 34.8125 
L 19.671875 8.109375 
L 35.5 8.109375 
Q 43.453125 8.109375 47.28125 11.40625 
Q 51.125 14.703125 51.125 21.484375 
Q 51.125 28.328125 47.28125 31.5625 
Q 43.453125 34.8125 35.5 34.8125 
z
M 19.671875 64.796875 
L 19.671875 42.828125 
L 34.28125 42.828125 
Q 41.5 42.828125 45.03125 45.53125 
Q 48.578125 48.25 48.578125 53.8125 
Q 48.578125 59.328125 45.03125 62.0625 
Q 41.5 64.796875 34.28125 64.796875 
z
M 9.8125 72.90625 
L 35.015625 72.90625 
Q 46.296875 72.90625 52.390625 68.21875 
Q 58.5 63.53125 58.5 54.890625 
Q 58.5 48.1875 55.375 44.234375 
Q 52.25 40.28125 46.1875 39.3125 
Q 53.46875 37.75 57.5 32.78125 
Q 61.53125 27.828125 61.53125 20.40625 
Q 61.53125 10.640625 54.890625 5.3125 
Q 48.25 0 35.984375 0 
L 9.8125 0 
z
" id="DejaVuSans-42"/>
      </defs>
      <g style="fill:#1a1a1a;" transform="translate(250.456242 336.706875)rotate(-90)scale(0.1 -0.1)">
       <use xlink:href="#DejaVuSans-42"/>
       <use x="68.603516" xlink:href="#DejaVuSans-6f"/>
       <use x="129.785156" xlink:href="#DejaVuSans-73"/>
       <use x="181.884766" xlink:href="#DejaVuSans-74"/>
       <use x="221.09375" xlink:href="#DejaVuSans-6f"/>
       <use x="282.275391" xlink:href="#DejaVuSans-6e"/>
      </g>
     </g>
    </g>
    <g id="xtick_7">
     <g id="line2d_7">
      <g>
       <use style="fill:#1a1a1a;stroke:#1a1a1a;stroke-width:0.8;" x="300.548611" xlink:href="#m8f1772f7f9" y="295.14125"/>
      </g>
     </g>
     <g id="text_7">
      <!-- average -->
      <defs>
       <path d="M 2.984375 54.6875 
L 12.5 54.6875 
L 29.59375 8.796875 
L 46.6875 54.6875 
L 56.203125 54.6875 
L 35.6875 0 
L 23.484375 0 
z
" id="DejaVuSans-76"/>
       <path d="M 45.40625 27.984375 
Q 45.40625 37.75 41.375 43.109375 
Q 37.359375 48.484375 30.078125 48.484375 
Q 22.859375 48.484375 18.828125 43.109375 
Q 14.796875 37.75 14.796875 27.984375 
Q 14.796875 18.265625 18.828125 12.890625 
Q 22.859375 7.515625 30.078125 7.515625 
Q 37.359375 7.515625 41.375 12.890625 
Q 45.40625 18.265625 45.40625 27.984375 
z
M 54.390625 6.78125 
Q 54.390625 -7.171875 48.1875 -13.984375 
Q 42 -20.796875 29.203125 -20.796875 
Q 24.46875 -20.796875 20.265625 -20.09375 
Q 16.0625 -19.390625 12.109375 -17.921875 
L 12.109375 -9.1875 
Q 16.0625 -11.328125 19.921875 -12.34375 
Q 23.78125 -13.375 27.78125 -13.375 
Q 36.625 -13.375 41.015625 -8.765625 
Q 45.40625 -4.15625 45.40625 5.171875 
L 45.40625 9.625 
Q 42.625 4.78125 38.28125 2.390625 
Q 33.9375 0 27.875 0 
Q 17.828125 0 11.671875 7.65625 
Q 5.515625 15.328125 5.515625 27.984375 
Q 5.515625 40.671875 11.671875 48.328125 
Q 17.828125 56 27.875 56 
Q 33.9375 56 38.28125 53.609375 
Q 42.625 51.21875 45.40625 46.390625 
L 45.40625 54.6875 
L 54.390625 54.6875 
z
" id="DejaVuSans-67"/>
      </defs>
      <g style="fill:#1a1a1a;" transform="translate(303.307986 343.081875)rotate(-90)scale(0.1 -0.1)">
       <use xlink:href="#DejaVuSans-61"/>
       <use x="61.279297" xlink:href="#DejaVuSans-76"/>
       <use x="120.458984" xlink:href="#DejaVuSans-65"/>
       <use x="181.982422" xlink:href="#DejaVuSans-72"/>
       <use x="223.095703" xlink:href="#DejaVuSans-61"/>
       <use x="284.375" xlink:href="#DejaVuSans-67"/>
       <use x="347.851562" xlink:href="#DejaVuSans-65"/>
      </g>
     </g>
    </g>
   </g>
   <g id="matplotlib.axis_2">
    <g id="ytick_1">
     <g id="line2d_8">
      <defs>
       <path d="M 0 0 
L -3.5 0 
" id="m587e9e1ad8" style="stroke:#1a1a1a;stroke-width:0.8;"/>
      </defs>
      <g>
       <use style="fill:#1a1a1a;stroke:#1a1a1a;stroke-width:0.8;" x="44.57" xlink:href="#m587e9e1ad8" y="295.14125"/>
      </g>
     </g>
     <g id="text_8">
      <!-- 0 -->
      <defs>
       <path d="M 31.78125 66.40625 
Q 24.171875 66.40625 20.328125 58.90625 
Q 16.5 51.421875 16.5 36.375 
Q 16.5 21.390625 20.328125 13.890625 
Q 24.171875 6.390625 31.78125 6.390625 
Q 39.453125 6.390625 43.28125 13.890625 
Q 47.125 21.390625 47.125 36.375 
Q 47.125 51.421875 43.28125 58.90625 
Q 39.453125 66.40625 31.78125 66.40625 
z
M 31.78125 74.21875 
Q 44.046875 74.21875 50.515625 64.515625 
Q 56.984375 54.828125 56.984375 36.375 
Q 56.984375 17.96875 50.515625 8.265625 
Q 44.046875 -1.421875 31.78125 -1.421875 
Q 19.53125 -1.421875 13.0625 8.265625 
Q 6.59375 17.96875 6.59375 36.375 
Q 6.59375 54.828125 13.0625 64.515625 
Q 19.53125 74.21875 31.78125 74.21875 
z
" id="DejaVuSans-30"/>
      </defs>
      <g style="fill:#1a1a1a;" transform="translate(31.2075 298.940469)scale(0.1 -0.1)">
       <use xlink:href="#DejaVuSans-30"/>
      </g>
     </g>
    </g>
    <g id="ytick_2">
     <g id="line2d_9">
      <g>
       <use style="fill:#1a1a1a;stroke:#1a1a1a;stroke-width:0.8;" x="44.57" xlink:href="#m587e9e1ad8" y="259.373083"/>
      </g>
     </g>
     <g id="text_9">
      <!-- 2 -->
      <defs>
       <path d="M 19.1875 8.296875 
L 53.609375 8.296875 
L 53.609375 0 
L 7.328125 0 
L 7.328125 8.296875 
Q 12.9375 14.109375 22.625 23.890625 
Q 32.328125 33.6875 34.8125 36.53125 
Q 39.546875 41.84375 41.421875 45.53125 
Q 43.3125 49.21875 43.3125 52.78125 
Q 43.3125 58.59375 39.234375 62.25 
Q 35.15625 65.921875 28.609375 65.921875 
Q 23.96875 65.921875 18.8125 64.3125 
Q 13.671875 62.703125 7.8125 59.421875 
L 7.8125 69.390625 
Q 13.765625 71.78125 18.9375 73 
Q 24.125 74.21875 28.421875 74.21875 
Q 39.75 74.21875 46.484375 68.546875 
Q 53.21875 62.890625 53.21875 53.421875 
Q 53.21875 48.921875 51.53125 44.890625 
Q 49.859375 40.875 45.40625 35.40625 
Q 44.1875 33.984375 37.640625 27.21875 
Q 31.109375 20.453125 19.1875 8.296875 
z
" id="DejaVuSans-32"/>
      </defs>
      <g style="fill:#1a1a1a;" transform="translate(31.2075 263.172302)scale(0.1 -0.1)">
       <use xlink:href="#DejaVuSans-32"/>
      </g>
     </g>
    </g>
    <g id="ytick_3">
     <g id="line2d_10">
      <g>
       <use style="fill:#1a1a1a;stroke:#1a1a1a;stroke-width:0.8;" x="44.57" xlink:href="#m587e9e1ad8" y="223.604917"/>
      </g>
     </g>
     <g id="text_10">
      <!-- 4 -->
      <defs>
       <path d="M 37.796875 64.3125 
L 12.890625 25.390625 
L 37.796875 25.390625 
z
M 35.203125 72.90625 
L 47.609375 72.90625 
L 47.609375 25.390625 
L 58.015625 25.390625 
L 58.015625 17.1875 
L 47.609375 17.1875 
L 47.609375 0 
L 37.796875 0 
L 37.796875 17.1875 
L 4.890625 17.1875 
L 4.890625 26.703125 
z
" id="DejaVuSans-34"/>
      </defs>
      <g style="fill:#1a1a1a;" transform="translate(31.2075 227.404135)scale(0.1 -0.1)">
       <use xlink:href="#DejaVuSans-34"/>
      </g>
     </g>
    </g>
    <g id="ytick_4">
     <g id="line2d_11">
      <g>
       <use style="fill:#1a1a1a;stroke:#1a1a1a;stroke-width:0.8;" x="44.57" xlink:href="#m587e9e1ad8" y="187.83675"/>
      </g>
     </g>
     <g id="text_11">
      <!-- 6 -->
      <defs>
       <path d="M 33.015625 40.375 
Q 26.375 40.375 22.484375 35.828125 
Q 18.609375 31.296875 18.609375 23.390625 
Q 18.609375 15.53125 22.484375 10.953125 
Q 26.375 6.390625 33.015625 6.390625 
Q 39.65625 6.390625 43.53125 10.953125 
Q 47.40625 15.53125 47.40625 23.390625 
Q 47.40625 31.296875 43.53125 35.828125 
Q 39.65625 40.375 33.015625 40.375 
z
M 52.59375 71.296875 
L 52.59375 62.3125 
Q 48.875 64.0625 45.09375 64.984375 
Q 41.3125 65.921875 37.59375 65.921875 
Q 27.828125 65.921875 22.671875 59.328125 
Q 17.53125 52.734375 16.796875 39.40625 
Q 19.671875 43.65625 24.015625 45.921875 
Q 28.375 48.1875 33.59375 48.1875 
Q 44.578125 48.1875 50.953125 41.515625 
Q 57.328125 34.859375 57.328125 23.390625 
Q 57.328125 12.15625 50.6875 5.359375 
Q 44.046875 -1.421875 33.015625 -1.421875 
Q 20.359375 -1.421875 13.671875 8.265625 
Q 6.984375 17.96875 6.984375 36.375 
Q 6.984375 53.65625 15.1875 63.9375 
Q 23.390625 74.21875 37.203125 74.21875 
Q 40.921875 74.21875 44.703125 73.484375 
Q 48.484375 72.75 52.59375 71.296875 
z
" id="DejaVuSans-36"/>
      </defs>
      <g style="fill:#1a1a1a;" transform="translate(31.2075 191.635969)scale(0.1 -0.1)">
       <use xlink:href="#DejaVuSans-36"/>
      </g>
     </g>
    </g>
    <g id="ytick_5">
     <g id="line2d_12">
      <g>
       <use style="fill:#1a1a1a;stroke:#1a1a1a;stroke-width:0.8;" x="44.57" xlink:href="#m587e9e1ad8" y="152.068583"/>
      </g>
     </g>
     <g id="text_12">
      <!-- 8 -->
      <defs>
       <path d="M 31.78125 34.625 
Q 24.75 34.625 20.71875 30.859375 
Q 16.703125 27.09375 16.703125 20.515625 
Q 16.703125 13.921875 20.71875 10.15625 
Q 24.75 6.390625 31.78125 6.390625 
Q 38.8125 6.390625 42.859375 10.171875 
Q 46.921875 13.96875 46.921875 20.515625 
Q 46.921875 27.09375 42.890625 30.859375 
Q 38.875 34.625 31.78125 34.625 
z
M 21.921875 38.8125 
Q 15.578125 40.375 12.03125 44.71875 
Q 8.5 49.078125 8.5 55.328125 
Q 8.5 64.0625 14.71875 69.140625 
Q 20.953125 74.21875 31.78125 74.21875 
Q 42.671875 74.21875 48.875 69.140625 
Q 55.078125 64.0625 55.078125 55.328125 
Q 55.078125 49.078125 51.53125 44.71875 
Q 48 40.375 41.703125 38.8125 
Q 48.828125 37.15625 52.796875 32.3125 
Q 56.78125 27.484375 56.78125 20.515625 
Q 56.78125 9.90625 50.3125 4.234375 
Q 43.84375 -1.421875 31.78125 -1.421875 
Q 19.734375 -1.421875 13.25 4.234375 
Q 6.78125 9.90625 6.78125 20.515625 
Q 6.78125 27.484375 10.78125 32.3125 
Q 14.796875 37.15625 21.921875 38.8125 
z
M 18.3125 54.390625 
Q 18.3125 48.734375 21.84375 45.5625 
Q 25.390625 42.390625 31.78125 42.390625 
Q 38.140625 42.390625 41.71875 45.5625 
Q 45.3125 48.734375 45.3125 54.390625 
Q 45.3125 60.0625 41.71875 63.234375 
Q 38.140625 66.40625 31.78125 66.40625 
Q 25.390625 66.40625 21.84375 63.234375 
Q 18.3125 60.0625 18.3125 54.390625 
z
" id="DejaVuSans-38"/>
      </defs>
      <g style="fill:#1a1a1a;" transform="translate(31.2075 155.867802)scale(0.1 -0.1)">
       <use xlink:href="#DejaVuSans-38"/>
      </g>
     </g>
    </g>
    <g id="ytick_6">
     <g id="line2d_13">
      <g>
       <use style="fill:#1a1a1a;stroke:#1a1a1a;stroke-width:0.8;" x="44.57" xlink:href="#m587e9e1ad8" y="116.300417"/>
      </g>
     </g>
     <g id="text_13">
      <!-- 10 -->
      <defs>
       <path d="M 12.40625 8.296875 
L 28.515625 8.296875 
L 28.515625 63.921875 
L 10.984375 60.40625 
L 10.984375 69.390625 
L 28.421875 72.90625 
L 38.28125 72.90625 
L 38.28125 8.296875 
L 54.390625 8.296875 
L 54.390625 0 
L 12.40625 0 
z
" id="DejaVuSans-31"/>
      </defs>
      <g style="fill:#1a1a1a;" transform="translate(24.845 120.099635)scale(0.1 -0.1)">
       <use xlink:href="#DejaVuSans-31"/>
       <use x="63.623047" xlink:href="#DejaVuSans-30"/>
      </g>
     </g>
    </g>
    <g id="ytick_7">
     <g id="line2d_14">
      <g>
       <use style="fill:#1a1a1a;stroke:#1a1a1a;stroke-width:0.8;" x="44.57" xlink:href="#m587e9e1ad8" y="80.53225"/>
      </g>
     </g>
     <g id="text_14">
      <!-- 12 -->
      <g style="fill:#1a1a1a;" transform="translate(24.845 84.331469)scale(0.1 -0.1)">
       <use xlink:href="#DejaVuSans-31"/>
       <use x="63.623047" xlink:href="#DejaVuSans-32"/>
      </g>
     </g>
    </g>
    <g id="ytick_8">
     <g id="line2d_15">
      <g>
       <use style="fill:#1a1a1a;stroke:#1a1a1a;stroke-width:0.8;" x="44.57" xlink:href="#m587e9e1ad8" y="44.764083"/>
      </g>
     </g>
     <g id="text_15">
      <!-- 14 -->
      <g style="fill:#1a1a1a;" transform="translate(24.845 48.563302)scale(0.1 -0.1)">
       <use xlink:href="#DejaVuSans-31"/>
       <use x="63.623047" xlink:href="#DejaVuSans-34"/>
      </g>
     </g>
    </g>
    <g id="text_16">
     <!-- Velocity score [km/h] -->
     <defs>
      <path d="M 28.609375 0 
L 0.78125 72.90625 
L 11.078125 72.90625 
L 34.1875 11.53125 
L 57.328125 72.90625 
L 67.578125 72.90625 
L 39.796875 0 
z
" id="DejaVuSans-56"/>
      <path d="M 48.78125 52.59375 
L 48.78125 44.1875 
Q 44.96875 46.296875 41.140625 47.34375 
Q 37.3125 48.390625 33.40625 48.390625 
Q 24.65625 48.390625 19.8125 42.84375 
Q 14.984375 37.3125 14.984375 27.296875 
Q 14.984375 17.28125 19.8125 11.734375 
Q 24.65625 6.203125 33.40625 6.203125 
Q 37.3125 6.203125 41.140625 7.25 
Q 44.96875 8.296875 48.78125 10.40625 
L 48.78125 2.09375 
Q 45.015625 0.34375 40.984375 -0.53125 
Q 36.96875 -1.421875 32.421875 -1.421875 
Q 20.0625 -1.421875 12.78125 6.34375 
Q 5.515625 14.109375 5.515625 27.296875 
Q 5.515625 40.671875 12.859375 48.328125 
Q 20.21875 56 33.015625 56 
Q 37.15625 56 41.109375 55.140625 
Q 45.0625 54.296875 48.78125 52.59375 
z
" id="DejaVuSans-63"/>
      <path d="M 8.59375 75.984375 
L 29.296875 75.984375 
L 29.296875 69 
L 17.578125 69 
L 17.578125 -6.203125 
L 29.296875 -6.203125 
L 29.296875 -13.1875 
L 8.59375 -13.1875 
z
" id="DejaVuSans-5b"/>
      <path d="M 52 44.1875 
Q 55.375 50.25 60.0625 53.125 
Q 64.75 56 71.09375 56 
Q 79.640625 56 84.28125 50.015625 
Q 88.921875 44.046875 88.921875 33.015625 
L 88.921875 0 
L 79.890625 0 
L 79.890625 32.71875 
Q 79.890625 40.578125 77.09375 44.375 
Q 74.3125 48.1875 68.609375 48.1875 
Q 61.625 48.1875 57.5625 43.546875 
Q 53.515625 38.921875 53.515625 30.90625 
L 53.515625 0 
L 44.484375 0 
L 44.484375 32.71875 
Q 44.484375 40.625 41.703125 44.40625 
Q 38.921875 48.1875 33.109375 48.1875 
Q 26.21875 48.1875 22.15625 43.53125 
Q 18.109375 38.875 18.109375 30.90625 
L 18.109375 0 
L 9.078125 0 
L 9.078125 54.6875 
L 18.109375 54.6875 
L 18.109375 46.1875 
Q 21.1875 51.21875 25.484375 53.609375 
Q 29.78125 56 35.6875 56 
Q 41.65625 56 45.828125 52.96875 
Q 50 49.953125 52 44.1875 
z
" id="DejaVuSans-6d"/>
      <path d="M 25.390625 72.90625 
L 33.6875 72.90625 
L 8.296875 -9.28125 
L 0 -9.28125 
z
" id="DejaVuSans-2f"/>
      <path d="M 54.890625 33.015625 
L 54.890625 0 
L 45.90625 0 
L 45.90625 32.71875 
Q 45.90625 40.484375 42.875 44.328125 
Q 39.84375 48.1875 33.796875 48.1875 
Q 26.515625 48.1875 22.3125 43.546875 
Q 18.109375 38.921875 18.109375 30.90625 
L 18.109375 0 
L 9.078125 0 
L 9.078125 75.984375 
L 18.109375 75.984375 
L 18.109375 46.1875 
Q 21.34375 51.125 25.703125 53.5625 
Q 30.078125 56 35.796875 56 
Q 45.21875 56 50.046875 50.171875 
Q 54.890625 44.34375 54.890625 33.015625 
z
" id="DejaVuSans-68"/>
      <path d="M 30.421875 75.984375 
L 30.421875 -13.1875 
L 9.71875 -13.1875 
L 9.71875 -6.203125 
L 21.390625 -6.203125 
L 21.390625 69 
L 9.71875 69 
L 9.71875 75.984375 
z
" id="DejaVuSans-5d"/>
     </defs>
     <g style="fill:#1a1a1a;" transform="translate(18.765312 214.250469)rotate(-90)scale(0.1 -0.1)">
      <use xlink:href="#DejaVuSans-56"/>
      <use x="68.298828" xlink:href="#DejaVuSans-65"/>
      <use x="129.822266" xlink:href="#DejaVuSans-6c"/>
      <use x="157.605469" xlink:href="#DejaVuSans-6f"/>
      <use x="218.787109" xlink:href="#DejaVuSans-63"/>
      <use x="273.767578" xlink:href="#DejaVuSans-69"/>
      <use x="301.550781" xlink:href="#DejaVuSans-74"/>
      <use x="340.759766" xlink:href="#DejaVuSans-79"/>
      <use x="399.939453" xlink:href="#DejaVuSans-20"/>
      <use x="431.726562" xlink:href="#DejaVuSans-73"/>
      <use x="483.826172" xlink:href="#DejaVuSans-63"/>
      <use x="538.806641" xlink:href="#DejaVuSans-6f"/>
      <use x="599.988281" xlink:href="#DejaVuSans-72"/>
      <use x="641.070312" xlink:href="#DejaVuSans-65"/>
      <use x="702.59375" xlink:href="#DejaVuSans-20"/>
      <use x="734.380859" xlink:href="#DejaVuSans-5b"/>
      <use x="773.394531" xlink:href="#DejaVuSans-6b"/>
      <use x="831.304688" xlink:href="#DejaVuSans-6d"/>
      <use x="928.716797" xlink:href="#DejaVuSans-2f"/>
      <use x="962.408203" xlink:href="#DejaVuSans-68"/>
      <use x="1025.787109" xlink:href="#DejaVuSans-5d"/>
     </g>
    </g>
   </g>
   <g id="patch_17">
    <path d="M 44.57 295.14125 
L 44.57 26.88 
" style="fill:none;stroke:#1a1a1a;stroke-linecap:square;stroke-linejoin:miter;stroke-width:0.8;"/>
   </g>
   <g id="patch_18">
    <path d="M 327.503 295.14125 
L 327.503 26.88 
" style="fill:none;stroke:#1a1a1a;stroke-linecap:square;stroke-linejoin:miter;stroke-width:0.8;"/>
   </g>
   <g id="patch_19">
    <path d="M 44.57 295.14125 
L 327.503 295.14125 
" style="fill:none;stroke:#1a1a1a;stroke-linecap:square;stroke-linejoin:miter;stroke-width:0.8;"/>
   </g>
   <g id="patch_20">
    <path d="M 44.57 26.88 
L 327.503 26.88 
" style="fill:none;stroke:#1a1a1a;stroke-linecap:square;stroke-linejoin:miter;stroke-width:0.8;"/>
   </g>
   <g id="text_17">
    <!-- Velocity Score -->
    <g style="fill:#1a1a1a;" transform="translate(143.1965 20.88)scale(0.12 -0.12)">
     <use xlink:href="#DejaVuSans-56"/>
     <use x="68.298828" xlink:href="#DejaVuSans-65"/>
     <use x="129.822266" xlink:href="#DejaVuSans-6c"/>
     <use x="157.605469" xlink:href="#DejaVuSans-6f"/>
     <use x="218.787109" xlink:href="#DejaVuSans-63"/>
     <use x="273.767578" xlink:href="#DejaVuSans-69"/>
     <use x="301.550781" xlink:href="#DejaVuSans-74"/>
     <use x="340.759766" xlink:href="#DejaVuSans-79"/>
     <use x="399.939453" xlink:href="#DejaVuSans-20"/>
     <use x="431.726562" xlink:href="#DejaVuSans-53"/>
     <use x="495.203125" xlink:href="#DejaVuSans-63"/>
     <use x="550.183594" xlink:href="#DejaVuSans-6f"/>
     <use x="611.365234" xlink:href="#DejaVuSans-72"/>
     <use x="652.447266" xlink:href="#DejaVuSans-65"/>
    </g>
   </g>
   <g id="legend_1">
    <g id="patch_21">
     <path d="M 214.453 78.914375 
L 320.503 78.914375 
Q 322.503 78.914375 322.503 76.914375 
L 322.503 33.88 
Q 322.503 31.88 320.503 31.88 
L 214.453 31.88 
Q 212.453 31.88 212.453 33.88 
L 212.453 76.914375 
Q 212.453 78.914375 214.453 78.914375 
z
" style="fill:#ffffff;opacity:0.8;stroke:#cccccc;stroke-linejoin:miter;"/>
    </g>
    <g id="patch_22">
     <path d="M 216.453 43.478437 
L 236.453 43.478437 
L 236.453 36.478437 
L 216.453 36.478437 
z
" style="fill:#aedea7;"/>
    </g>
    <g id="text_18">
     <!-- top 1%$ -->
     <defs>
      <path d="M 18.109375 8.203125 
L 18.109375 -20.796875 
L 9.078125 -20.796875 
L 9.078125 54.6875 
L 18.109375 54.6875 
L 18.109375 46.390625 
Q 20.953125 51.265625 25.265625 53.625 
Q 29.59375 56 35.59375 56 
Q 45.5625 56 51.78125 48.09375 
Q 58.015625 40.1875 58.015625 27.296875 
Q 58.015625 14.40625 51.78125 6.484375 
Q 45.5625 -1.421875 35.59375 -1.421875 
Q 29.59375 -1.421875 25.265625 0.953125 
Q 20.953125 3.328125 18.109375 8.203125 
z
M 48.6875 27.296875 
Q 48.6875 37.203125 44.609375 42.84375 
Q 40.53125 48.484375 33.40625 48.484375 
Q 26.265625 48.484375 22.1875 42.84375 
Q 18.109375 37.203125 18.109375 27.296875 
Q 18.109375 17.390625 22.1875 11.75 
Q 26.265625 6.109375 33.40625 6.109375 
Q 40.53125 6.109375 44.609375 11.75 
Q 48.6875 17.390625 48.6875 27.296875 
z
" id="DejaVuSans-70"/>
      <path d="M 72.703125 32.078125 
Q 68.453125 32.078125 66.03125 28.46875 
Q 63.625 24.859375 63.625 18.40625 
Q 63.625 12.0625 66.03125 8.421875 
Q 68.453125 4.78125 72.703125 4.78125 
Q 76.859375 4.78125 79.265625 8.421875 
Q 81.6875 12.0625 81.6875 18.40625 
Q 81.6875 24.8125 79.265625 28.4375 
Q 76.859375 32.078125 72.703125 32.078125 
z
M 72.703125 38.28125 
Q 80.421875 38.28125 84.953125 32.90625 
Q 89.5 27.546875 89.5 18.40625 
Q 89.5 9.28125 84.9375 3.921875 
Q 80.375 -1.421875 72.703125 -1.421875 
Q 64.890625 -1.421875 60.34375 3.921875 
Q 55.8125 9.28125 55.8125 18.40625 
Q 55.8125 27.59375 60.375 32.9375 
Q 64.9375 38.28125 72.703125 38.28125 
z
M 22.3125 68.015625 
Q 18.109375 68.015625 15.6875 64.375 
Q 13.28125 60.75 13.28125 54.390625 
Q 13.28125 47.953125 15.671875 44.328125 
Q 18.0625 40.71875 22.3125 40.71875 
Q 26.5625 40.71875 28.96875 44.328125 
Q 31.390625 47.953125 31.390625 54.390625 
Q 31.390625 60.6875 28.953125 64.34375 
Q 26.515625 68.015625 22.3125 68.015625 
z
M 66.40625 74.21875 
L 74.21875 74.21875 
L 28.609375 -1.421875 
L 20.796875 -1.421875 
z
M 22.3125 74.21875 
Q 30.03125 74.21875 34.609375 68.875 
Q 39.203125 63.53125 39.203125 54.390625 
Q 39.203125 45.171875 34.640625 39.84375 
Q 30.078125 34.515625 22.3125 34.515625 
Q 14.546875 34.515625 10.03125 39.859375 
Q 5.515625 45.21875 5.515625 54.390625 
Q 5.515625 63.484375 10.046875 68.84375 
Q 14.59375 74.21875 22.3125 74.21875 
z
" id="DejaVuSans-25"/>
      <path d="M 33.796875 -14.703125 
L 28.90625 -14.703125 
L 28.859375 0 
Q 23.734375 0.09375 18.609375 1.1875 
Q 13.484375 2.296875 8.296875 4.5 
L 8.296875 13.28125 
Q 13.28125 10.15625 18.375 8.5625 
Q 23.484375 6.984375 28.90625 6.9375 
L 28.90625 29.203125 
Q 18.109375 30.953125 13.203125 35.15625 
Q 8.296875 39.359375 8.296875 46.6875 
Q 8.296875 54.640625 13.625 59.21875 
Q 18.953125 63.8125 28.90625 64.5 
L 28.90625 75.984375 
L 33.796875 75.984375 
L 33.796875 64.65625 
Q 38.328125 64.453125 42.578125 63.6875 
Q 46.828125 62.9375 50.875 61.625 
L 50.875 53.078125 
Q 46.828125 55.125 42.546875 56.25 
Q 38.28125 57.375 33.796875 57.5625 
L 33.796875 36.71875 
Q 44.875 35.015625 50.09375 30.609375 
Q 55.328125 26.21875 55.328125 18.609375 
Q 55.328125 10.359375 49.78125 5.59375 
Q 44.234375 0.828125 33.796875 0.09375 
z
M 28.90625 37.59375 
L 28.90625 57.625 
Q 23.25 56.984375 20.265625 54.390625 
Q 17.28125 51.8125 17.28125 47.515625 
Q 17.28125 43.3125 20.03125 40.96875 
Q 22.796875 38.625 28.90625 37.59375 
z
M 33.796875 28.21875 
L 33.796875 7.078125 
Q 39.984375 7.90625 43.140625 10.59375 
Q 46.296875 13.28125 46.296875 17.671875 
Q 46.296875 21.96875 43.28125 24.5 
Q 40.28125 27.046875 33.796875 28.21875 
z
" id="DejaVuSans-24"/>
     </defs>
     <g style="fill:#1a1a1a;" transform="translate(244.453 43.478437)scale(0.1 -0.1)">
      <use xlink:href="#DejaVuSans-74"/>
      <use x="39.208984" xlink:href="#DejaVuSans-6f"/>
      <use x="100.390625" xlink:href="#DejaVuSans-70"/>
      <use x="163.867188" xlink:href="#DejaVuSans-20"/>
      <use x="195.654297" xlink:href="#DejaVuSans-31"/>
      <use x="259.277344" xlink:href="#DejaVuSans-25"/>
      <use x="354.296875" xlink:href="#DejaVuSans-24"/>
     </g>
    </g>
    <g id="patch_23">
     <path d="M 216.453 58.156563 
L 236.453 58.156563 
L 236.453 51.156563 
L 216.453 51.156563 
z
" style="fill:#37a055;"/>
    </g>
    <g id="text_19">
     <!-- other 99% -->
     <defs>
      <path d="M 10.984375 1.515625 
L 10.984375 10.5 
Q 14.703125 8.734375 18.5 7.8125 
Q 22.3125 6.890625 25.984375 6.890625 
Q 35.75 6.890625 40.890625 13.453125 
Q 46.046875 20.015625 46.78125 33.40625 
Q 43.953125 29.203125 39.59375 26.953125 
Q 35.25 24.703125 29.984375 24.703125 
Q 19.046875 24.703125 12.671875 31.3125 
Q 6.296875 37.9375 6.296875 49.421875 
Q 6.296875 60.640625 12.9375 67.421875 
Q 19.578125 74.21875 30.609375 74.21875 
Q 43.265625 74.21875 49.921875 64.515625 
Q 56.59375 54.828125 56.59375 36.375 
Q 56.59375 19.140625 48.40625 8.859375 
Q 40.234375 -1.421875 26.421875 -1.421875 
Q 22.703125 -1.421875 18.890625 -0.6875 
Q 15.09375 0.046875 10.984375 1.515625 
z
M 30.609375 32.421875 
Q 37.25 32.421875 41.125 36.953125 
Q 45.015625 41.5 45.015625 49.421875 
Q 45.015625 57.28125 41.125 61.84375 
Q 37.25 66.40625 30.609375 66.40625 
Q 23.96875 66.40625 20.09375 61.84375 
Q 16.21875 57.28125 16.21875 49.421875 
Q 16.21875 41.5 20.09375 36.953125 
Q 23.96875 32.421875 30.609375 32.421875 
z
" id="DejaVuSans-39"/>
     </defs>
     <g style="fill:#1a1a1a;" transform="translate(244.453 58.156563)scale(0.1 -0.1)">
      <use xlink:href="#DejaVuSans-6f"/>
      <use x="61.181641" xlink:href="#DejaVuSans-74"/>
      <use x="100.390625" xlink:href="#DejaVuSans-68"/>
      <use x="163.769531" xlink:href="#DejaVuSans-65"/>
      <use x="225.292969" xlink:href="#DejaVuSans-72"/>
      <use x="266.40625" xlink:href="#DejaVuSans-20"/>
      <use x="298.193359" xlink:href="#DejaVuSans-39"/>
      <use x="361.816406" xlink:href="#DejaVuSans-39"/>
      <use x="425.439453" xlink:href="#DejaVuSans-25"/>
     </g>
    </g>
    <g id="line2d_16"/>
    <g id="line2d_17">
     <defs>
      <path d="M 0 -5 
L -1.12257 -1.545085 
L -4.755283 -1.545085 
L -1.816356 0.59017 
L -2.938926 4.045085 
L -0 1.90983 
L 2.938926 4.045085 
L 1.816356 0.59017 
L 4.755283 -1.545085 
L 1.12257 -1.545085 
z
" id="m3548e7a49b" style="stroke:#ff0000;stroke-linejoin:bevel;"/>
     </defs>
     <g>
      <use style="fill:#ff0000;stroke:#ff0000;stroke-linejoin:bevel;" x="226.453" xlink:href="#m3548e7a49b" y="69.334687"/>
     </g>
    </g>
    <g id="text_20">
     <!-- ratio 1% / 99% -->
     <g style="fill:#1a1a1a;" transform="translate(244.453 72.834687)scale(0.1 -0.1)">
      <use xlink:href="#DejaVuSans-72"/>
      <use x="41.113281" xlink:href="#DejaVuSans-61"/>
      <use x="102.392578" xlink:href="#DejaVuSans-74"/>
      <use x="141.601562" xlink:href="#DejaVuSans-69"/>
      <use x="169.384766" xlink:href="#DejaVuSans-6f"/>
      <use x="230.566406" xlink:href="#DejaVuSans-20"/>
      <use x="262.353516" xlink:href="#DejaVuSans-31"/>
      <use x="325.976562" xlink:href="#DejaVuSans-25"/>
      <use x="420.996094" xlink:href="#DejaVuSans-20"/>
      <use x="452.783203" xlink:href="#DejaVuSans-2f"/>
      <use x="486.474609" xlink:href="#DejaVuSans-20"/>
      <use x="518.261719" xlink:href="#DejaVuSans-39"/>
      <use x="581.884766" xlink:href="#DejaVuSans-39"/>
      <use x="645.507812" xlink:href="#DejaVuSans-25"/>
     </g>
    </g>
   </g>
  </g>
  <g id="axes_2">
   <g id="patch_24">
    <path d="M 406.577 295.14125 
L 689.51 295.14125 
L 689.51 26.88 
L 406.577 26.88 
z
" style="fill:#ffffff;"/>
   </g>
   <g id="patch_25">
    <path clip-path="url(#p69ace7325a)" d="M 419.437591 295.14125 
L 433.531389 295.14125 
L 433.531389 81.628496 
L 419.437591 81.628496 
z
" style="fill:#abd0e6;"/>
   </g>
   <g id="patch_26">
    <path clip-path="url(#p69ace7325a)" d="M 454.672087 295.14125 
L 468.765885 295.14125 
L 468.765885 107.841385 
L 454.672087 107.841385 
z
" style="fill:#abd0e6;"/>
   </g>
   <g id="patch_27">
    <path clip-path="url(#p69ace7325a)" d="M 489.906582 295.14125 
L 504.00038 295.14125 
L 504.00038 157.088839 
L 489.906582 157.088839 
z
" style="fill:#abd0e6;"/>
   </g>
   <g id="patch_28">
    <path clip-path="url(#p69ace7325a)" d="M 525.141078 295.14125 
L 539.234876 295.14125 
L 539.234876 234.005243 
L 525.141078 234.005243 
z
" style="fill:#abd0e6;"/>
   </g>
   <g id="patch_29">
    <path clip-path="url(#p69ace7325a)" d="M 560.375573 295.14125 
L 574.469372 295.14125 
L 574.469372 247.041029 
L 560.375573 247.041029 
z
" style="fill:#abd0e6;"/>
   </g>
   <g id="patch_30">
    <path clip-path="url(#p69ace7325a)" d="M 595.610069 295.14125 
L 609.703867 295.14125 
L 609.703867 261.026159 
L 595.610069 261.026159 
z
" style="fill:#abd0e6;"/>
   </g>
   <g id="patch_31">
    <path clip-path="url(#p69ace7325a)" d="M 648.461813 295.14125 
L 662.555611 295.14125 
L 662.555611 227.713436 
L 648.461813 227.713436 
z
" style="fill:#abd0e6;"/>
   </g>
   <g id="patch_32">
    <path clip-path="url(#p69ace7325a)" d="M 433.531389 295.14125 
L 447.625187 295.14125 
L 447.625187 206.75866 
L 433.531389 206.75866 
z
" style="fill:#3787c0;"/>
   </g>
   <g id="patch_33">
    <path clip-path="url(#p69ace7325a)" d="M 468.765885 295.14125 
L 482.859683 295.14125 
L 482.859683 219.422978 
L 468.765885 219.422978 
z
" style="fill:#3787c0;"/>
   </g>
   <g id="patch_34">
    <path clip-path="url(#p69ace7325a)" d="M 504.00038 295.14125 
L 518.094179 295.14125 
L 518.094179 222.999984 
L 504.00038 222.999984 
z
" style="fill:#3787c0;"/>
   </g>
   <g id="patch_35">
    <path clip-path="url(#p69ace7325a)" d="M 539.234876 295.14125 
L 553.328674 295.14125 
L 553.328674 272.429076 
L 539.234876 272.429076 
z
" style="fill:#3787c0;"/>
   </g>
   <g id="patch_36">
    <path clip-path="url(#p69ace7325a)" d="M 574.469372 295.14125 
L 588.56317 295.14125 
L 588.56317 276.506851 
L 574.469372 276.506851 
z
" style="fill:#3787c0;"/>
   </g>
   <g id="patch_37">
    <path clip-path="url(#p69ace7325a)" d="M 609.703867 295.14125 
L 623.797666 295.14125 
L 623.797666 283.403801 
L 609.703867 283.403801 
z
" style="fill:#3787c0;"/>
   </g>
   <g id="patch_38">
    <path clip-path="url(#p69ace7325a)" d="M 662.555611 295.14125 
L 676.649409 295.14125 
L 676.649409 264.456316 
L 662.555611 264.456316 
z
" style="fill:#3787c0;"/>
   </g>
   <g id="matplotlib.axis_3">
    <g id="xtick_8">
     <g id="line2d_18">
      <g>
       <use style="fill:#1a1a1a;stroke:#1a1a1a;stroke-width:0.8;" x="433.531389" xlink:href="#m8f1772f7f9" y="295.14125"/>
      </g>
     </g>
     <g id="text_21">
      <!-- Paris -->
      <g style="fill:#1a1a1a;" transform="translate(436.290764 326.39125)rotate(-90)scale(0.1 -0.1)">
       <use xlink:href="#DejaVuSans-50"/>
       <use x="60.240234" xlink:href="#DejaVuSans-61"/>
       <use x="121.519531" xlink:href="#DejaVuSans-72"/>
       <use x="162.632812" xlink:href="#DejaVuSans-69"/>
       <use x="190.416016" xlink:href="#DejaVuSans-73"/>
      </g>
     </g>
    </g>
    <g id="xtick_9">
     <g id="line2d_19">
      <g>
       <use style="fill:#1a1a1a;stroke:#1a1a1a;stroke-width:0.8;" x="468.765885" xlink:href="#m8f1772f7f9" y="295.14125"/>
      </g>
     </g>
     <g id="text_22">
      <!-- New York -->
      <g style="fill:#1a1a1a;" transform="translate(471.52526 349.239688)rotate(-90)scale(0.1 -0.1)">
       <use xlink:href="#DejaVuSans-4e"/>
       <use x="74.804688" xlink:href="#DejaVuSans-65"/>
       <use x="136.328125" xlink:href="#DejaVuSans-77"/>
       <use x="218.115234" xlink:href="#DejaVuSans-20"/>
       <use x="249.902344" xlink:href="#DejaVuSans-59"/>
       <use x="310.783203" xlink:href="#DejaVuSans-6f"/>
       <use x="371.964844" xlink:href="#DejaVuSans-72"/>
       <use x="413.078125" xlink:href="#DejaVuSans-6b"/>
      </g>
     </g>
    </g>
    <g id="xtick_10">
     <g id="line2d_20">
      <g>
       <use style="fill:#1a1a1a;stroke:#1a1a1a;stroke-width:0.8;" x="504.00038" xlink:href="#m8f1772f7f9" y="295.14125"/>
      </g>
     </g>
     <g id="text_23">
      <!-- Madrid -->
      <g style="fill:#1a1a1a;" transform="translate(506.759755 336.483438)rotate(-90)scale(0.1 -0.1)">
       <use xlink:href="#DejaVuSans-4d"/>
       <use x="86.279297" xlink:href="#DejaVuSans-61"/>
       <use x="147.558594" xlink:href="#DejaVuSans-64"/>
       <use x="211.035156" xlink:href="#DejaVuSans-72"/>
       <use x="252.148438" xlink:href="#DejaVuSans-69"/>
       <use x="279.931641" xlink:href="#DejaVuSans-64"/>
      </g>
     </g>
    </g>
    <g id="xtick_11">
     <g id="line2d_21">
      <g>
       <use style="fill:#1a1a1a;stroke:#1a1a1a;stroke-width:0.8;" x="539.234876" xlink:href="#m8f1772f7f9" y="295.14125"/>
      </g>
     </g>
     <g id="text_24">
      <!-- Montreal -->
      <g style="fill:#1a1a1a;" transform="translate(541.994251 346.313125)rotate(-90)scale(0.1 -0.1)">
       <use xlink:href="#DejaVuSans-4d"/>
       <use x="86.279297" xlink:href="#DejaVuSans-6f"/>
       <use x="147.460938" xlink:href="#DejaVuSans-6e"/>
       <use x="210.839844" xlink:href="#DejaVuSans-74"/>
       <use x="250.048828" xlink:href="#DejaVuSans-72"/>
       <use x="291.130859" xlink:href="#DejaVuSans-65"/>
       <use x="352.654297" xlink:href="#DejaVuSans-61"/>
       <use x="413.933594" xlink:href="#DejaVuSans-6c"/>
      </g>
     </g>
    </g>
    <g id="xtick_12">
     <g id="line2d_22">
      <g>
       <use style="fill:#1a1a1a;stroke:#1a1a1a;stroke-width:0.8;" x="574.469372" xlink:href="#m8f1772f7f9" y="295.14125"/>
      </g>
     </g>
     <g id="text_25">
      <!-- Sydney -->
      <g style="fill:#1a1a1a;" transform="translate(577.228747 339.16625)rotate(-90)scale(0.1 -0.1)">
       <use xlink:href="#DejaVuSans-53"/>
       <use x="63.476562" xlink:href="#DejaVuSans-79"/>
       <use x="122.65625" xlink:href="#DejaVuSans-64"/>
       <use x="186.132812" xlink:href="#DejaVuSans-6e"/>
       <use x="249.511719" xlink:href="#DejaVuSans-65"/>
       <use x="311.035156" xlink:href="#DejaVuSans-79"/>
      </g>
     </g>
    </g>
    <g id="xtick_13">
     <g id="line2d_23">
      <g>
       <use style="fill:#1a1a1a;stroke:#1a1a1a;stroke-width:0.8;" x="609.703867" xlink:href="#m8f1772f7f9" y="295.14125"/>
      </g>
     </g>
     <g id="text_26">
      <!-- Boston -->
      <g style="fill:#1a1a1a;" transform="translate(612.463242 336.706875)rotate(-90)scale(0.1 -0.1)">
       <use xlink:href="#DejaVuSans-42"/>
       <use x="68.603516" xlink:href="#DejaVuSans-6f"/>
       <use x="129.785156" xlink:href="#DejaVuSans-73"/>
       <use x="181.884766" xlink:href="#DejaVuSans-74"/>
       <use x="221.09375" xlink:href="#DejaVuSans-6f"/>
       <use x="282.275391" xlink:href="#DejaVuSans-6e"/>
      </g>
     </g>
    </g>
    <g id="xtick_14">
     <g id="line2d_24">
      <g>
       <use style="fill:#1a1a1a;stroke:#1a1a1a;stroke-width:0.8;" x="662.555611" xlink:href="#m8f1772f7f9" y="295.14125"/>
      </g>
     </g>
     <g id="text_27">
      <!-- average -->
      <g style="fill:#1a1a1a;" transform="translate(665.314986 343.081875)rotate(-90)scale(0.1 -0.1)">
       <use xlink:href="#DejaVuSans-61"/>
       <use x="61.279297" xlink:href="#DejaVuSans-76"/>
       <use x="120.458984" xlink:href="#DejaVuSans-65"/>
       <use x="181.982422" xlink:href="#DejaVuSans-72"/>
       <use x="223.095703" xlink:href="#DejaVuSans-61"/>
       <use x="284.375" xlink:href="#DejaVuSans-67"/>
       <use x="347.851562" xlink:href="#DejaVuSans-65"/>
      </g>
     </g>
    </g>
   </g>
   <g id="matplotlib.axis_4">
    <g id="ytick_9">
     <g id="line2d_25">
      <g>
       <use style="fill:#1a1a1a;stroke:#1a1a1a;stroke-width:0.8;" x="406.577" xlink:href="#m587e9e1ad8" y="295.14125"/>
      </g>
     </g>
     <g id="text_28">
      <!-- 0.0 -->
      <defs>
       <path d="M 10.6875 12.40625 
L 21 12.40625 
L 21 0 
L 10.6875 0 
z
" id="DejaVuSans-2e"/>
      </defs>
      <g style="fill:#1a1a1a;" transform="translate(383.673875 298.940469)scale(0.1 -0.1)">
       <use xlink:href="#DejaVuSans-30"/>
       <use x="63.623047" xlink:href="#DejaVuSans-2e"/>
       <use x="95.410156" xlink:href="#DejaVuSans-30"/>
      </g>
     </g>
    </g>
    <g id="ytick_10">
     <g id="line2d_26">
      <g>
       <use style="fill:#1a1a1a;stroke:#1a1a1a;stroke-width:0.8;" x="406.577" xlink:href="#m587e9e1ad8" y="256.818214"/>
      </g>
     </g>
     <g id="text_29">
      <!-- 0.5 -->
      <defs>
       <path d="M 10.796875 72.90625 
L 49.515625 72.90625 
L 49.515625 64.59375 
L 19.828125 64.59375 
L 19.828125 46.734375 
Q 21.96875 47.46875 24.109375 47.828125 
Q 26.265625 48.1875 28.421875 48.1875 
Q 40.625 48.1875 47.75 41.5 
Q 54.890625 34.8125 54.890625 23.390625 
Q 54.890625 11.625 47.5625 5.09375 
Q 40.234375 -1.421875 26.90625 -1.421875 
Q 22.3125 -1.421875 17.546875 -0.640625 
Q 12.796875 0.140625 7.71875 1.703125 
L 7.71875 11.625 
Q 12.109375 9.234375 16.796875 8.0625 
Q 21.484375 6.890625 26.703125 6.890625 
Q 35.15625 6.890625 40.078125 11.328125 
Q 45.015625 15.765625 45.015625 23.390625 
Q 45.015625 31 40.078125 35.4375 
Q 35.15625 39.890625 26.703125 39.890625 
Q 22.75 39.890625 18.8125 39.015625 
Q 14.890625 38.140625 10.796875 36.28125 
z
" id="DejaVuSans-35"/>
      </defs>
      <g style="fill:#1a1a1a;" transform="translate(383.673875 260.617433)scale(0.1 -0.1)">
       <use xlink:href="#DejaVuSans-30"/>
       <use x="63.623047" xlink:href="#DejaVuSans-2e"/>
       <use x="95.410156" xlink:href="#DejaVuSans-35"/>
      </g>
     </g>
    </g>
    <g id="ytick_11">
     <g id="line2d_27">
      <g>
       <use style="fill:#1a1a1a;stroke:#1a1a1a;stroke-width:0.8;" x="406.577" xlink:href="#m587e9e1ad8" y="218.495179"/>
      </g>
     </g>
     <g id="text_30">
      <!-- 1.0 -->
      <g style="fill:#1a1a1a;" transform="translate(383.673875 222.294397)scale(0.1 -0.1)">
       <use xlink:href="#DejaVuSans-31"/>
       <use x="63.623047" xlink:href="#DejaVuSans-2e"/>
       <use x="95.410156" xlink:href="#DejaVuSans-30"/>
      </g>
     </g>
    </g>
    <g id="ytick_12">
     <g id="line2d_28">
      <g>
       <use style="fill:#1a1a1a;stroke:#1a1a1a;stroke-width:0.8;" x="406.577" xlink:href="#m587e9e1ad8" y="180.172143"/>
      </g>
     </g>
     <g id="text_31">
      <!-- 1.5 -->
      <g style="fill:#1a1a1a;" transform="translate(383.673875 183.971362)scale(0.1 -0.1)">
       <use xlink:href="#DejaVuSans-31"/>
       <use x="63.623047" xlink:href="#DejaVuSans-2e"/>
       <use x="95.410156" xlink:href="#DejaVuSans-35"/>
      </g>
     </g>
    </g>
    <g id="ytick_13">
     <g id="line2d_29">
      <g>
       <use style="fill:#1a1a1a;stroke:#1a1a1a;stroke-width:0.8;" x="406.577" xlink:href="#m587e9e1ad8" y="141.849107"/>
      </g>
     </g>
     <g id="text_32">
      <!-- 2.0 -->
      <g style="fill:#1a1a1a;" transform="translate(383.673875 145.648326)scale(0.1 -0.1)">
       <use xlink:href="#DejaVuSans-32"/>
       <use x="63.623047" xlink:href="#DejaVuSans-2e"/>
       <use x="95.410156" xlink:href="#DejaVuSans-30"/>
      </g>
     </g>
    </g>
    <g id="ytick_14">
     <g id="line2d_30">
      <g>
       <use style="fill:#1a1a1a;stroke:#1a1a1a;stroke-width:0.8;" x="406.577" xlink:href="#m587e9e1ad8" y="103.526071"/>
      </g>
     </g>
     <g id="text_33">
      <!-- 2.5 -->
      <g style="fill:#1a1a1a;" transform="translate(383.673875 107.32529)scale(0.1 -0.1)">
       <use xlink:href="#DejaVuSans-32"/>
       <use x="63.623047" xlink:href="#DejaVuSans-2e"/>
       <use x="95.410156" xlink:href="#DejaVuSans-35"/>
      </g>
     </g>
    </g>
    <g id="ytick_15">
     <g id="line2d_31">
      <g>
       <use style="fill:#1a1a1a;stroke:#1a1a1a;stroke-width:0.8;" x="406.577" xlink:href="#m587e9e1ad8" y="65.203036"/>
      </g>
     </g>
     <g id="text_34">
      <!-- 3.0 -->
      <defs>
       <path d="M 40.578125 39.3125 
Q 47.65625 37.796875 51.625 33 
Q 55.609375 28.21875 55.609375 21.1875 
Q 55.609375 10.40625 48.1875 4.484375 
Q 40.765625 -1.421875 27.09375 -1.421875 
Q 22.515625 -1.421875 17.65625 -0.515625 
Q 12.796875 0.390625 7.625 2.203125 
L 7.625 11.71875 
Q 11.71875 9.328125 16.59375 8.109375 
Q 21.484375 6.890625 26.8125 6.890625 
Q 36.078125 6.890625 40.9375 10.546875 
Q 45.796875 14.203125 45.796875 21.1875 
Q 45.796875 27.640625 41.28125 31.265625 
Q 36.765625 34.90625 28.71875 34.90625 
L 20.21875 34.90625 
L 20.21875 43.015625 
L 29.109375 43.015625 
Q 36.375 43.015625 40.234375 45.921875 
Q 44.09375 48.828125 44.09375 54.296875 
Q 44.09375 59.90625 40.109375 62.90625 
Q 36.140625 65.921875 28.71875 65.921875 
Q 24.65625 65.921875 20.015625 65.03125 
Q 15.375 64.15625 9.8125 62.3125 
L 9.8125 71.09375 
Q 15.4375 72.65625 20.34375 73.4375 
Q 25.25 74.21875 29.59375 74.21875 
Q 40.828125 74.21875 47.359375 69.109375 
Q 53.90625 64.015625 53.90625 55.328125 
Q 53.90625 49.265625 50.4375 45.09375 
Q 46.96875 40.921875 40.578125 39.3125 
z
" id="DejaVuSans-33"/>
      </defs>
      <g style="fill:#1a1a1a;" transform="translate(383.673875 69.002254)scale(0.1 -0.1)">
       <use xlink:href="#DejaVuSans-33"/>
       <use x="63.623047" xlink:href="#DejaVuSans-2e"/>
       <use x="95.410156" xlink:href="#DejaVuSans-30"/>
      </g>
     </g>
    </g>
    <g id="ytick_16">
     <g id="line2d_32">
      <g>
       <use style="fill:#1a1a1a;stroke:#1a1a1a;stroke-width:0.8;" x="406.577" xlink:href="#m587e9e1ad8" y="26.88"/>
      </g>
     </g>
     <g id="text_35">
      <!-- 3.5 -->
      <g style="fill:#1a1a1a;" transform="translate(383.673875 30.679219)scale(0.1 -0.1)">
       <use xlink:href="#DejaVuSans-33"/>
       <use x="63.623047" xlink:href="#DejaVuSans-2e"/>
       <use x="95.410156" xlink:href="#DejaVuSans-35"/>
      </g>
     </g>
    </g>
    <g id="text_36">
     <!-- Sociality Score -->
     <g style="fill:#1a1a1a;" transform="translate(366.396375 197.846563)rotate(-90)scale(0.1 -0.1)">
      <use xlink:href="#DejaVuSans-53"/>
      <use x="63.476562" xlink:href="#DejaVuSans-6f"/>
      <use x="124.658203" xlink:href="#DejaVuSans-63"/>
      <use x="179.638672" xlink:href="#DejaVuSans-69"/>
      <use x="207.421875" xlink:href="#DejaVuSans-61"/>
      <use x="268.701172" xlink:href="#DejaVuSans-6c"/>
      <use x="296.484375" xlink:href="#DejaVuSans-69"/>
      <use x="324.267578" xlink:href="#DejaVuSans-74"/>
      <use x="363.476562" xlink:href="#DejaVuSans-79"/>
      <use x="422.65625" xlink:href="#DejaVuSans-20"/>
      <use x="454.443359" xlink:href="#DejaVuSans-53"/>
      <use x="517.919922" xlink:href="#DejaVuSans-63"/>
      <use x="572.900391" xlink:href="#DejaVuSans-6f"/>
      <use x="634.082031" xlink:href="#DejaVuSans-72"/>
      <use x="675.164062" xlink:href="#DejaVuSans-65"/>
     </g>
     <!-- [milions people] -->
     <g style="fill:#1a1a1a;" transform="translate(377.594187 201.321562)rotate(-90)scale(0.1 -0.1)">
      <use xlink:href="#DejaVuSans-5b"/>
      <use x="39.013672" xlink:href="#DejaVuSans-6d"/>
      <use x="136.425781" xlink:href="#DejaVuSans-69"/>
      <use x="164.208984" xlink:href="#DejaVuSans-6c"/>
      <use x="191.992188" xlink:href="#DejaVuSans-69"/>
      <use x="219.775391" xlink:href="#DejaVuSans-6f"/>
      <use x="280.957031" xlink:href="#DejaVuSans-6e"/>
      <use x="344.335938" xlink:href="#DejaVuSans-73"/>
      <use x="396.435547" xlink:href="#DejaVuSans-20"/>
      <use x="428.222656" xlink:href="#DejaVuSans-70"/>
      <use x="491.699219" xlink:href="#DejaVuSans-65"/>
      <use x="553.222656" xlink:href="#DejaVuSans-6f"/>
      <use x="614.404297" xlink:href="#DejaVuSans-70"/>
      <use x="677.880859" xlink:href="#DejaVuSans-6c"/>
      <use x="705.664062" xlink:href="#DejaVuSans-65"/>
      <use x="767.1875" xlink:href="#DejaVuSans-5d"/>
     </g>
    </g>
   </g>
   <g id="patch_39">
    <path d="M 406.577 295.14125 
L 406.577 26.88 
" style="fill:none;stroke:#1a1a1a;stroke-linecap:square;stroke-linejoin:miter;stroke-width:0.8;"/>
   </g>
   <g id="patch_40">
    <path d="M 689.51 295.14125 
L 689.51 26.88 
" style="fill:none;stroke:#1a1a1a;stroke-linecap:square;stroke-linejoin:miter;stroke-width:0.8;"/>
   </g>
   <g id="patch_41">
    <path d="M 406.577 295.14125 
L 689.51 295.14125 
" style="fill:none;stroke:#1a1a1a;stroke-linecap:square;stroke-linejoin:miter;stroke-width:0.8;"/>
   </g>
   <g id="patch_42">
    <path d="M 406.577 26.88 
L 689.51 26.88 
" style="fill:none;stroke:#1a1a1a;stroke-linecap:square;stroke-linejoin:miter;stroke-width:0.8;"/>
   </g>
   <g id="text_37">
    <!-- Sociality Score -->
    <g style="fill:#1a1a1a;" transform="translate(503.840375 20.88)scale(0.12 -0.12)">
     <use xlink:href="#DejaVuSans-53"/>
     <use x="63.476562" xlink:href="#DejaVuSans-6f"/>
     <use x="124.658203" xlink:href="#DejaVuSans-63"/>
     <use x="179.638672" xlink:href="#DejaVuSans-69"/>
     <use x="207.421875" xlink:href="#DejaVuSans-61"/>
     <use x="268.701172" xlink:href="#DejaVuSans-6c"/>
     <use x="296.484375" xlink:href="#DejaVuSans-69"/>
     <use x="324.267578" xlink:href="#DejaVuSans-74"/>
     <use x="363.476562" xlink:href="#DejaVuSans-79"/>
     <use x="422.65625" xlink:href="#DejaVuSans-20"/>
     <use x="454.443359" xlink:href="#DejaVuSans-53"/>
     <use x="517.919922" xlink:href="#DejaVuSans-63"/>
     <use x="572.900391" xlink:href="#DejaVuSans-6f"/>
     <use x="634.082031" xlink:href="#DejaVuSans-72"/>
     <use x="675.164062" xlink:href="#DejaVuSans-65"/>
    </g>
   </g>
   <g id="legend_2">
    <g id="patch_43">
     <path d="M 576.46 78.914375 
L 682.51 78.914375 
Q 684.51 78.914375 684.51 76.914375 
L 684.51 33.88 
Q 684.51 31.88 682.51 31.88 
L 576.46 31.88 
Q 574.46 31.88 574.46 33.88 
L 574.46 76.914375 
Q 574.46 78.914375 576.46 78.914375 
z
" style="fill:#ffffff;opacity:0.8;stroke:#cccccc;stroke-linejoin:miter;"/>
    </g>
    <g id="patch_44">
     <path d="M 578.46 43.478437 
L 598.46 43.478437 
L 598.46 36.478437 
L 578.46 36.478437 
z
" style="fill:#abd0e6;"/>
    </g>
    <g id="text_38">
     <!-- top 1%$ -->
     <g style="fill:#1a1a1a;" transform="translate(606.46 43.478437)scale(0.1 -0.1)">
      <use xlink:href="#DejaVuSans-74"/>
      <use x="39.208984" xlink:href="#DejaVuSans-6f"/>
      <use x="100.390625" xlink:href="#DejaVuSans-70"/>
      <use x="163.867188" xlink:href="#DejaVuSans-20"/>
      <use x="195.654297" xlink:href="#DejaVuSans-31"/>
      <use x="259.277344" xlink:href="#DejaVuSans-25"/>
      <use x="354.296875" xlink:href="#DejaVuSans-24"/>
     </g>
    </g>
    <g id="patch_45">
     <path d="M 578.46 58.156563 
L 598.46 58.156563 
L 598.46 51.156563 
L 578.46 51.156563 
z
" style="fill:#3787c0;"/>
    </g>
    <g id="text_39">
     <!-- other 99% -->
     <g style="fill:#1a1a1a;" transform="translate(606.46 58.156563)scale(0.1 -0.1)">
      <use xlink:href="#DejaVuSans-6f"/>
      <use x="61.181641" xlink:href="#DejaVuSans-74"/>
      <use x="100.390625" xlink:href="#DejaVuSans-68"/>
      <use x="163.769531" xlink:href="#DejaVuSans-65"/>
      <use x="225.292969" xlink:href="#DejaVuSans-72"/>
      <use x="266.40625" xlink:href="#DejaVuSans-20"/>
      <use x="298.193359" xlink:href="#DejaVuSans-39"/>
      <use x="361.816406" xlink:href="#DejaVuSans-39"/>
      <use x="425.439453" xlink:href="#DejaVuSans-25"/>
     </g>
    </g>
    <g id="line2d_33"/>
    <g id="line2d_34">
     <g>
      <use style="fill:#ff0000;stroke:#ff0000;stroke-linejoin:bevel;" x="588.46" xlink:href="#m3548e7a49b" y="69.334687"/>
     </g>
    </g>
    <g id="text_40">
     <!-- ratio 1% / 99% -->
     <g style="fill:#1a1a1a;" transform="translate(606.46 72.834687)scale(0.1 -0.1)">
      <use xlink:href="#DejaVuSans-72"/>
      <use x="41.113281" xlink:href="#DejaVuSans-61"/>
      <use x="102.392578" xlink:href="#DejaVuSans-74"/>
      <use x="141.601562" xlink:href="#DejaVuSans-69"/>
      <use x="169.384766" xlink:href="#DejaVuSans-6f"/>
      <use x="230.566406" xlink:href="#DejaVuSans-20"/>
      <use x="262.353516" xlink:href="#DejaVuSans-31"/>
      <use x="325.976562" xlink:href="#DejaVuSans-25"/>
      <use x="420.996094" xlink:href="#DejaVuSans-20"/>
      <use x="452.783203" xlink:href="#DejaVuSans-2f"/>
      <use x="486.474609" xlink:href="#DejaVuSans-20"/>
      <use x="518.261719" xlink:href="#DejaVuSans-39"/>
      <use x="581.884766" xlink:href="#DejaVuSans-39"/>
      <use x="645.507812" xlink:href="#DejaVuSans-25"/>
     </g>
    </g>
   </g>
  </g>
  <g id="axes_3">
   <g id="matplotlib.axis_5">
    <g id="ytick_17">
     <g id="line2d_35">
      <defs>
       <path d="M 0 0 
L 3.5 0 
" id="m904218fc7d" style="stroke:#c44e52;stroke-width:0.8;"/>
      </defs>
      <g>
       <use style="fill:#c44e52;stroke:#c44e52;stroke-width:0.8;" x="327.503" xlink:href="#m904218fc7d" y="295.14125"/>
      </g>
     </g>
     <g id="text_41">
      <!-- 0 -->
      <g style="fill:#c44e52;" transform="translate(334.503 298.940469)scale(0.1 -0.1)">
       <use xlink:href="#DejaVuSans-30"/>
      </g>
     </g>
    </g>
    <g id="ytick_18">
     <g id="line2d_36">
      <g>
       <use style="fill:#c44e52;stroke:#c44e52;stroke-width:0.8;" x="327.503" xlink:href="#m904218fc7d" y="250.431042"/>
      </g>
     </g>
     <g id="text_42">
      <!-- 2 -->
      <g style="fill:#c44e52;" transform="translate(334.503 254.23026)scale(0.1 -0.1)">
       <use xlink:href="#DejaVuSans-32"/>
      </g>
     </g>
    </g>
    <g id="ytick_19">
     <g id="line2d_37">
      <g>
       <use style="fill:#c44e52;stroke:#c44e52;stroke-width:0.8;" x="327.503" xlink:href="#m904218fc7d" y="205.720833"/>
      </g>
     </g>
     <g id="text_43">
      <!-- 4 -->
      <g style="fill:#c44e52;" transform="translate(334.503 209.520052)scale(0.1 -0.1)">
       <use xlink:href="#DejaVuSans-34"/>
      </g>
     </g>
    </g>
    <g id="ytick_20">
     <g id="line2d_38">
      <g>
       <use style="fill:#c44e52;stroke:#c44e52;stroke-width:0.8;" x="327.503" xlink:href="#m904218fc7d" y="161.010625"/>
      </g>
     </g>
     <g id="text_44">
      <!-- 6 -->
      <g style="fill:#c44e52;" transform="translate(334.503 164.809844)scale(0.1 -0.1)">
       <use xlink:href="#DejaVuSans-36"/>
      </g>
     </g>
    </g>
    <g id="ytick_21">
     <g id="line2d_39">
      <g>
       <use style="fill:#c44e52;stroke:#c44e52;stroke-width:0.8;" x="327.503" xlink:href="#m904218fc7d" y="116.300417"/>
      </g>
     </g>
     <g id="text_45">
      <!-- 8 -->
      <g style="fill:#c44e52;" transform="translate(334.503 120.099635)scale(0.1 -0.1)">
       <use xlink:href="#DejaVuSans-38"/>
      </g>
     </g>
    </g>
    <g id="ytick_22">
     <g id="line2d_40">
      <g>
       <use style="fill:#c44e52;stroke:#c44e52;stroke-width:0.8;" x="327.503" xlink:href="#m904218fc7d" y="71.590208"/>
      </g>
     </g>
     <g id="text_46">
      <!-- 10 -->
      <g style="fill:#c44e52;" transform="translate(334.503 75.389427)scale(0.1 -0.1)">
       <use xlink:href="#DejaVuSans-31"/>
       <use x="63.623047" xlink:href="#DejaVuSans-30"/>
      </g>
     </g>
    </g>
    <g id="ytick_23">
     <g id="line2d_41">
      <g>
       <use style="fill:#c44e52;stroke:#c44e52;stroke-width:0.8;" x="327.503" xlink:href="#m904218fc7d" y="26.88"/>
      </g>
     </g>
     <g id="text_47">
      <!-- 12 -->
      <g style="fill:#c44e52;" transform="translate(334.503 30.679219)scale(0.1 -0.1)">
       <use xlink:href="#DejaVuSans-31"/>
       <use x="63.623047" xlink:href="#DejaVuSans-32"/>
      </g>
     </g>
    </g>
   </g>
   <g id="LineCollection_1">
    <path clip-path="url(#p8ab374b021)" d="M 78.571288 256.511317 
L 78.571288 256.511317 
" style="fill:none;stroke:#ff0000;stroke-width:1.5;"/>
    <path clip-path="url(#p8ab374b021)" d="M 113.805784 260.07096 
L 113.805784 260.07096 
" style="fill:none;stroke:#ff0000;stroke-width:1.5;"/>
    <path clip-path="url(#p8ab374b021)" d="M 149.04028 260.265496 
L 149.04028 260.265496 
" style="fill:none;stroke:#ff0000;stroke-width:1.5;"/>
    <path clip-path="url(#p8ab374b021)" d="M 184.274775 255.6217 
L 184.274775 255.6217 
" style="fill:none;stroke:#ff0000;stroke-width:1.5;"/>
    <path clip-path="url(#p8ab374b021)" d="M 219.509271 258.659352 
L 219.509271 258.659352 
" style="fill:none;stroke:#ff0000;stroke-width:1.5;"/>
    <path clip-path="url(#p8ab374b021)" d="M 254.743767 257.965288 
L 254.743767 257.965288 
" style="fill:none;stroke:#ff0000;stroke-width:1.5;"/>
    <path clip-path="url(#p8ab374b021)" d="M 307.59551 261.174626 
L 307.59551 255.190078 
" style="fill:none;stroke:#ff0000;stroke-width:1.5;"/>
   </g>
   <g id="line2d_42">
    <g clip-path="url(#p8ab374b021)">
     <use style="fill:#ff0000;stroke:#ff0000;stroke-linejoin:bevel;" x="78.571288" xlink:href="#m3548e7a49b" y="256.511317"/>
     <use style="fill:#ff0000;stroke:#ff0000;stroke-linejoin:bevel;" x="113.805784" xlink:href="#m3548e7a49b" y="260.07096"/>
     <use style="fill:#ff0000;stroke:#ff0000;stroke-linejoin:bevel;" x="149.04028" xlink:href="#m3548e7a49b" y="260.265496"/>
     <use style="fill:#ff0000;stroke:#ff0000;stroke-linejoin:bevel;" x="184.274775" xlink:href="#m3548e7a49b" y="255.6217"/>
     <use style="fill:#ff0000;stroke:#ff0000;stroke-linejoin:bevel;" x="219.509271" xlink:href="#m3548e7a49b" y="258.659352"/>
     <use style="fill:#ff0000;stroke:#ff0000;stroke-linejoin:bevel;" x="254.743767" xlink:href="#m3548e7a49b" y="257.965288"/>
     <use style="fill:#ff0000;stroke:#ff0000;stroke-linejoin:bevel;" x="307.59551" xlink:href="#m3548e7a49b" y="258.182352"/>
    </g>
   </g>
   <g id="patch_46">
    <path d="M 44.57 295.14125 
L 44.57 26.88 
" style="fill:none;stroke:#1a1a1a;stroke-linecap:square;stroke-linejoin:miter;stroke-width:0.8;"/>
   </g>
   <g id="patch_47">
    <path d="M 327.503 295.14125 
L 327.503 26.88 
" style="fill:none;stroke:#1a1a1a;stroke-linecap:square;stroke-linejoin:miter;stroke-width:0.8;"/>
   </g>
   <g id="patch_48">
    <path d="M 44.57 295.14125 
L 327.503 295.14125 
" style="fill:none;stroke:#1a1a1a;stroke-linecap:square;stroke-linejoin:miter;stroke-width:0.8;"/>
   </g>
   <g id="patch_49">
    <path d="M 44.57 26.88 
L 327.503 26.88 
" style="fill:none;stroke:#1a1a1a;stroke-linecap:square;stroke-linejoin:miter;stroke-width:0.8;"/>
   </g>
  </g>
  <g id="axes_4">
   <g id="matplotlib.axis_6">
    <g id="ytick_24">
     <g id="line2d_43">
      <g>
       <use style="fill:#c44e52;stroke:#c44e52;stroke-width:0.8;" x="689.51" xlink:href="#m904218fc7d" y="295.14125"/>
      </g>
     </g>
     <g id="text_48">
      <!-- 0 -->
      <g style="fill:#c44e52;" transform="translate(696.51 298.940469)scale(0.1 -0.1)">
       <use xlink:href="#DejaVuSans-30"/>
      </g>
     </g>
    </g>
    <g id="ytick_25">
     <g id="line2d_44">
      <g>
       <use style="fill:#c44e52;stroke:#c44e52;stroke-width:0.8;" x="689.51" xlink:href="#m904218fc7d" y="250.431042"/>
      </g>
     </g>
     <g id="text_49">
      <!-- 2 -->
      <g style="fill:#c44e52;" transform="translate(696.51 254.23026)scale(0.1 -0.1)">
       <use xlink:href="#DejaVuSans-32"/>
      </g>
     </g>
    </g>
    <g id="ytick_26">
     <g id="line2d_45">
      <g>
       <use style="fill:#c44e52;stroke:#c44e52;stroke-width:0.8;" x="689.51" xlink:href="#m904218fc7d" y="205.720833"/>
      </g>
     </g>
     <g id="text_50">
      <!-- 4 -->
      <g style="fill:#c44e52;" transform="translate(696.51 209.520052)scale(0.1 -0.1)">
       <use xlink:href="#DejaVuSans-34"/>
      </g>
     </g>
    </g>
    <g id="ytick_27">
     <g id="line2d_46">
      <g>
       <use style="fill:#c44e52;stroke:#c44e52;stroke-width:0.8;" x="689.51" xlink:href="#m904218fc7d" y="161.010625"/>
      </g>
     </g>
     <g id="text_51">
      <!-- 6 -->
      <g style="fill:#c44e52;" transform="translate(696.51 164.809844)scale(0.1 -0.1)">
       <use xlink:href="#DejaVuSans-36"/>
      </g>
     </g>
    </g>
    <g id="ytick_28">
     <g id="line2d_47">
      <g>
       <use style="fill:#c44e52;stroke:#c44e52;stroke-width:0.8;" x="689.51" xlink:href="#m904218fc7d" y="116.300417"/>
      </g>
     </g>
     <g id="text_52">
      <!-- 8 -->
      <g style="fill:#c44e52;" transform="translate(696.51 120.099635)scale(0.1 -0.1)">
       <use xlink:href="#DejaVuSans-38"/>
      </g>
     </g>
    </g>
    <g id="ytick_29">
     <g id="line2d_48">
      <g>
       <use style="fill:#c44e52;stroke:#c44e52;stroke-width:0.8;" x="689.51" xlink:href="#m904218fc7d" y="71.590208"/>
      </g>
     </g>
     <g id="text_53">
      <!-- 10 -->
      <g style="fill:#c44e52;" transform="translate(696.51 75.389427)scale(0.1 -0.1)">
       <use xlink:href="#DejaVuSans-31"/>
       <use x="63.623047" xlink:href="#DejaVuSans-30"/>
      </g>
     </g>
    </g>
    <g id="ytick_30">
     <g id="line2d_49">
      <g>
       <use style="fill:#c44e52;stroke:#c44e52;stroke-width:0.8;" x="689.51" xlink:href="#m904218fc7d" y="26.88"/>
      </g>
     </g>
     <g id="text_54">
      <!-- 12 -->
      <g style="fill:#c44e52;" transform="translate(696.51 30.679219)scale(0.1 -0.1)">
       <use xlink:href="#DejaVuSans-31"/>
       <use x="63.623047" xlink:href="#DejaVuSans-32"/>
      </g>
     </g>
    </g>
   </g>
   <g id="LineCollection_2">
    <path clip-path="url(#p69ace7325a)" d="M 440.578288 241.136272 
L 440.578288 241.136272 
" style="fill:none;stroke:#ff0000;stroke-width:1.5;"/>
    <path clip-path="url(#p69ace7325a)" d="M 475.812784 239.842735 
L 475.812784 239.842735 
" style="fill:none;stroke:#ff0000;stroke-width:1.5;"/>
    <path clip-path="url(#p69ace7325a)" d="M 511.04728 252.361629 
L 511.04728 252.361629 
" style="fill:none;stroke:#ff0000;stroke-width:1.5;"/>
    <path clip-path="url(#p69ace7325a)" d="M 546.281775 234.966395 
L 546.281775 234.966395 
" style="fill:none;stroke:#ff0000;stroke-width:1.5;"/>
    <path clip-path="url(#p69ace7325a)" d="M 581.516271 237.436925 
L 581.516271 237.436925 
" style="fill:none;stroke:#ff0000;stroke-width:1.5;"/>
    <path clip-path="url(#p69ace7325a)" d="M 616.750767 230.165768 
L 616.750767 230.165768 
" style="fill:none;stroke:#ff0000;stroke-width:1.5;"/>
    <path clip-path="url(#p69ace7325a)" d="M 669.60251 248.734692 
L 669.60251 229.901883 
" style="fill:none;stroke:#ff0000;stroke-width:1.5;"/>
   </g>
   <g id="line2d_50">
    <g clip-path="url(#p69ace7325a)">
     <use style="fill:#ff0000;stroke:#ff0000;stroke-linejoin:bevel;" x="440.578288" xlink:href="#m3548e7a49b" y="241.136272"/>
     <use style="fill:#ff0000;stroke:#ff0000;stroke-linejoin:bevel;" x="475.812784" xlink:href="#m3548e7a49b" y="239.842735"/>
     <use style="fill:#ff0000;stroke:#ff0000;stroke-linejoin:bevel;" x="511.04728" xlink:href="#m3548e7a49b" y="252.361629"/>
     <use style="fill:#ff0000;stroke:#ff0000;stroke-linejoin:bevel;" x="546.281775" xlink:href="#m3548e7a49b" y="234.966395"/>
     <use style="fill:#ff0000;stroke:#ff0000;stroke-linejoin:bevel;" x="581.516271" xlink:href="#m3548e7a49b" y="237.436925"/>
     <use style="fill:#ff0000;stroke:#ff0000;stroke-linejoin:bevel;" x="616.750767" xlink:href="#m3548e7a49b" y="230.165768"/>
     <use style="fill:#ff0000;stroke:#ff0000;stroke-linejoin:bevel;" x="669.60251" xlink:href="#m3548e7a49b" y="239.318287"/>
    </g>
   </g>
   <g id="patch_50">
    <path d="M 406.577 295.14125 
L 406.577 26.88 
" style="fill:none;stroke:#1a1a1a;stroke-linecap:square;stroke-linejoin:miter;stroke-width:0.8;"/>
   </g>
   <g id="patch_51">
    <path d="M 689.51 295.14125 
L 689.51 26.88 
" style="fill:none;stroke:#1a1a1a;stroke-linecap:square;stroke-linejoin:miter;stroke-width:0.8;"/>
   </g>
   <g id="patch_52">
    <path d="M 406.577 295.14125 
L 689.51 295.14125 
" style="fill:none;stroke:#1a1a1a;stroke-linecap:square;stroke-linejoin:miter;stroke-width:0.8;"/>
   </g>
   <g id="patch_53">
    <path d="M 406.577 26.88 
L 689.51 26.88 
" style="fill:none;stroke:#1a1a1a;stroke-linecap:square;stroke-linejoin:miter;stroke-width:0.8;"/>
   </g>
  </g>
 </g>
 <defs>
  <clipPath id="p8ab374b021">
   <rect height="268.26125" width="282.933" x="44.57" y="26.88"/>
  </clipPath>
  <clipPath id="p69ace7325a">
   <rect height="268.26125" width="282.933" x="406.577" y="26.88"/>
  </clipPath>
 </defs>
</svg>
