<?xml version="1.0" encoding="utf-8" standalone="no"?>
<!DOCTYPE svg PUBLIC "-//W3C//DTD SVG 1.1//EN"
  "http://www.w3.org/Graphics/SVG/1.1/DTD/svg11.dtd">
<!-- Created with matplotlib (http://matplotlib.org/) -->
<svg height="288pt" version="1.1" viewBox="0 0 720 288" width="720pt" xmlns="http://www.w3.org/2000/svg" xmlns:xlink="http://www.w3.org/1999/xlink">
 <defs>
  <style type="text/css">
*{stroke-linecap:butt;stroke-linejoin:round;}
  </style>
 </defs>
 <g id="figure_1">
  <g id="patch_1">
   <path d="M 0 288 
L 720 288 
L 720 0 
L 0 0 
z
" style="fill:none;"/>
  </g>
  <g id="axes_1">
   <g id="patch_2">
    <path d="M 90 252 
L 332.608696 252 
L 332.608696 34.56 
L 90 34.56 
z
" style="fill:none;"/>
   </g>
   <g id="matplotlib.axis_1">
    <g id="xtick_1">
     <g id="line2d_1">
      <defs>
       <path d="M 0 0 
L 0 3.5 
" id="mcc7ffbf6ea" style="stroke:#1a1a1a;stroke-width:0.8;"/>
      </defs>
      <g>
       <use style="fill:#1a1a1a;stroke:#1a1a1a;stroke-width:0.8;" x="90" xlink:href="#mcc7ffbf6ea" y="252"/>
      </g>
     </g>
     <g id="text_1">
      <!-- 0.0 -->
      <defs>
       <path d="M 31.78125 66.40625 
Q 24.171875 66.40625 20.328125 58.90625 
Q 16.5 51.421875 16.5 36.375 
Q 16.5 21.390625 20.328125 13.890625 
Q 24.171875 6.390625 31.78125 6.390625 
Q 39.453125 6.390625 43.28125 13.890625 
Q 47.125 21.390625 47.125 36.375 
Q 47.125 51.421875 43.28125 58.90625 
Q 39.453125 66.40625 31.78125 66.40625 
z
M 31.78125 74.21875 
Q 44.046875 74.21875 50.515625 64.515625 
Q 56.984375 54.828125 56.984375 36.375 
Q 56.984375 17.96875 50.515625 8.265625 
Q 44.046875 -1.421875 31.78125 -1.421875 
Q 19.53125 -1.421875 13.0625 8.265625 
Q 6.59375 17.96875 6.59375 36.375 
Q 6.59375 54.828125 13.0625 64.515625 
Q 19.53125 74.21875 31.78125 74.21875 
z
" id="DejaVuSans-30"/>
       <path d="M 10.6875 12.40625 
L 21 12.40625 
L 21 0 
L 10.6875 0 
z
" id="DejaVuSans-2e"/>
      </defs>
      <g style="fill:#1a1a1a;" transform="translate(82.048438 266.598437)scale(0.1 -0.1)">
       <use xlink:href="#DejaVuSans-30"/>
       <use x="63.623047" xlink:href="#DejaVuSans-2e"/>
       <use x="95.410156" xlink:href="#DejaVuSans-30"/>
      </g>
     </g>
    </g>
    <g id="xtick_2">
     <g id="line2d_2">
      <g>
       <use style="fill:#1a1a1a;stroke:#1a1a1a;stroke-width:0.8;" x="130.434783" xlink:href="#mcc7ffbf6ea" y="252"/>
      </g>
     </g>
     <g id="text_2">
      <!-- 0.5 -->
      <defs>
       <path d="M 10.796875 72.90625 
L 49.515625 72.90625 
L 49.515625 64.59375 
L 19.828125 64.59375 
L 19.828125 46.734375 
Q 21.96875 47.46875 24.109375 47.828125 
Q 26.265625 48.1875 28.421875 48.1875 
Q 40.625 48.1875 47.75 41.5 
Q 54.890625 34.8125 54.890625 23.390625 
Q 54.890625 11.625 47.5625 5.09375 
Q 40.234375 -1.421875 26.90625 -1.421875 
Q 22.3125 -1.421875 17.546875 -0.640625 
Q 12.796875 0.140625 7.71875 1.703125 
L 7.71875 11.625 
Q 12.109375 9.234375 16.796875 8.0625 
Q 21.484375 6.890625 26.703125 6.890625 
Q 35.15625 6.890625 40.078125 11.328125 
Q 45.015625 15.765625 45.015625 23.390625 
Q 45.015625 31 40.078125 35.4375 
Q 35.15625 39.890625 26.703125 39.890625 
Q 22.75 39.890625 18.8125 39.015625 
Q 14.890625 38.140625 10.796875 36.28125 
z
" id="DejaVuSans-35"/>
      </defs>
      <g style="fill:#1a1a1a;" transform="translate(122.48322 266.598437)scale(0.1 -0.1)">
       <use xlink:href="#DejaVuSans-30"/>
       <use x="63.623047" xlink:href="#DejaVuSans-2e"/>
       <use x="95.410156" xlink:href="#DejaVuSans-35"/>
      </g>
     </g>
    </g>
    <g id="xtick_3">
     <g id="line2d_3">
      <g>
       <use style="fill:#1a1a1a;stroke:#1a1a1a;stroke-width:0.8;" x="170.869565" xlink:href="#mcc7ffbf6ea" y="252"/>
      </g>
     </g>
     <g id="text_3">
      <!-- 1.0 -->
      <defs>
       <path d="M 12.40625 8.296875 
L 28.515625 8.296875 
L 28.515625 63.921875 
L 10.984375 60.40625 
L 10.984375 69.390625 
L 28.421875 72.90625 
L 38.28125 72.90625 
L 38.28125 8.296875 
L 54.390625 8.296875 
L 54.390625 0 
L 12.40625 0 
z
" id="DejaVuSans-31"/>
      </defs>
      <g style="fill:#1a1a1a;" transform="translate(162.918003 266.598437)scale(0.1 -0.1)">
       <use xlink:href="#DejaVuSans-31"/>
       <use x="63.623047" xlink:href="#DejaVuSans-2e"/>
       <use x="95.410156" xlink:href="#DejaVuSans-30"/>
      </g>
     </g>
    </g>
    <g id="xtick_4">
     <g id="line2d_4">
      <g>
       <use style="fill:#1a1a1a;stroke:#1a1a1a;stroke-width:0.8;" x="211.304348" xlink:href="#mcc7ffbf6ea" y="252"/>
      </g>
     </g>
     <g id="text_4">
      <!-- 1.5 -->
      <g style="fill:#1a1a1a;" transform="translate(203.352785 266.598437)scale(0.1 -0.1)">
       <use xlink:href="#DejaVuSans-31"/>
       <use x="63.623047" xlink:href="#DejaVuSans-2e"/>
       <use x="95.410156" xlink:href="#DejaVuSans-35"/>
      </g>
     </g>
    </g>
    <g id="xtick_5">
     <g id="line2d_5">
      <g>
       <use style="fill:#1a1a1a;stroke:#1a1a1a;stroke-width:0.8;" x="251.73913" xlink:href="#mcc7ffbf6ea" y="252"/>
      </g>
     </g>
     <g id="text_5">
      <!-- 2.0 -->
      <defs>
       <path d="M 19.1875 8.296875 
L 53.609375 8.296875 
L 53.609375 0 
L 7.328125 0 
L 7.328125 8.296875 
Q 12.9375 14.109375 22.625 23.890625 
Q 32.328125 33.6875 34.8125 36.53125 
Q 39.546875 41.84375 41.421875 45.53125 
Q 43.3125 49.21875 43.3125 52.78125 
Q 43.3125 58.59375 39.234375 62.25 
Q 35.15625 65.921875 28.609375 65.921875 
Q 23.96875 65.921875 18.8125 64.3125 
Q 13.671875 62.703125 7.8125 59.421875 
L 7.8125 69.390625 
Q 13.765625 71.78125 18.9375 73 
Q 24.125 74.21875 28.421875 74.21875 
Q 39.75 74.21875 46.484375 68.546875 
Q 53.21875 62.890625 53.21875 53.421875 
Q 53.21875 48.921875 51.53125 44.890625 
Q 49.859375 40.875 45.40625 35.40625 
Q 44.1875 33.984375 37.640625 27.21875 
Q 31.109375 20.453125 19.1875 8.296875 
z
" id="DejaVuSans-32"/>
      </defs>
      <g style="fill:#1a1a1a;" transform="translate(243.787568 266.598437)scale(0.1 -0.1)">
       <use xlink:href="#DejaVuSans-32"/>
       <use x="63.623047" xlink:href="#DejaVuSans-2e"/>
       <use x="95.410156" xlink:href="#DejaVuSans-30"/>
      </g>
     </g>
    </g>
    <g id="xtick_6">
     <g id="line2d_6">
      <g>
       <use style="fill:#1a1a1a;stroke:#1a1a1a;stroke-width:0.8;" x="292.173913" xlink:href="#mcc7ffbf6ea" y="252"/>
      </g>
     </g>
     <g id="text_6">
      <!-- 2.5 -->
      <g style="fill:#1a1a1a;" transform="translate(284.222351 266.598437)scale(0.1 -0.1)">
       <use xlink:href="#DejaVuSans-32"/>
       <use x="63.623047" xlink:href="#DejaVuSans-2e"/>
       <use x="95.410156" xlink:href="#DejaVuSans-35"/>
      </g>
     </g>
    </g>
    <g id="xtick_7">
     <g id="line2d_7">
      <g>
       <use style="fill:#1a1a1a;stroke:#1a1a1a;stroke-width:0.8;" x="332.608696" xlink:href="#mcc7ffbf6ea" y="252"/>
      </g>
     </g>
     <g id="text_7">
      <!-- 3.0 -->
      <defs>
       <path d="M 40.578125 39.3125 
Q 47.65625 37.796875 51.625 33 
Q 55.609375 28.21875 55.609375 21.1875 
Q 55.609375 10.40625 48.1875 4.484375 
Q 40.765625 -1.421875 27.09375 -1.421875 
Q 22.515625 -1.421875 17.65625 -0.515625 
Q 12.796875 0.390625 7.625 2.203125 
L 7.625 11.71875 
Q 11.71875 9.328125 16.59375 8.109375 
Q 21.484375 6.890625 26.8125 6.890625 
Q 36.078125 6.890625 40.9375 10.546875 
Q 45.796875 14.203125 45.796875 21.1875 
Q 45.796875 27.640625 41.28125 31.265625 
Q 36.765625 34.90625 28.71875 34.90625 
L 20.21875 34.90625 
L 20.21875 43.015625 
L 29.109375 43.015625 
Q 36.375 43.015625 40.234375 45.921875 
Q 44.09375 48.828125 44.09375 54.296875 
Q 44.09375 59.90625 40.109375 62.90625 
Q 36.140625 65.921875 28.71875 65.921875 
Q 24.65625 65.921875 20.015625 65.03125 
Q 15.375 64.15625 9.8125 62.3125 
L 9.8125 71.09375 
Q 15.4375 72.65625 20.34375 73.4375 
Q 25.25 74.21875 29.59375 74.21875 
Q 40.828125 74.21875 47.359375 69.109375 
Q 53.90625 64.015625 53.90625 55.328125 
Q 53.90625 49.265625 50.4375 45.09375 
Q 46.96875 40.921875 40.578125 39.3125 
z
" id="DejaVuSans-33"/>
      </defs>
      <g style="fill:#1a1a1a;" transform="translate(324.657133 266.598437)scale(0.1 -0.1)">
       <use xlink:href="#DejaVuSans-33"/>
       <use x="63.623047" xlink:href="#DejaVuSans-2e"/>
       <use x="95.410156" xlink:href="#DejaVuSans-30"/>
      </g>
     </g>
    </g>
    <g id="text_8">
     <!-- time [h] -->
     <defs>
      <path d="M 18.3125 70.21875 
L 18.3125 54.6875 
L 36.8125 54.6875 
L 36.8125 47.703125 
L 18.3125 47.703125 
L 18.3125 18.015625 
Q 18.3125 11.328125 20.140625 9.421875 
Q 21.96875 7.515625 27.59375 7.515625 
L 36.8125 7.515625 
L 36.8125 0 
L 27.59375 0 
Q 17.1875 0 13.234375 3.875 
Q 9.28125 7.765625 9.28125 18.015625 
L 9.28125 47.703125 
L 2.6875 47.703125 
L 2.6875 54.6875 
L 9.28125 54.6875 
L 9.28125 70.21875 
z
" id="DejaVuSans-74"/>
      <path d="M 9.421875 54.6875 
L 18.40625 54.6875 
L 18.40625 0 
L 9.421875 0 
z
M 9.421875 75.984375 
L 18.40625 75.984375 
L 18.40625 64.59375 
L 9.421875 64.59375 
z
" id="DejaVuSans-69"/>
      <path d="M 52 44.1875 
Q 55.375 50.25 60.0625 53.125 
Q 64.75 56 71.09375 56 
Q 79.640625 56 84.28125 50.015625 
Q 88.921875 44.046875 88.921875 33.015625 
L 88.921875 0 
L 79.890625 0 
L 79.890625 32.71875 
Q 79.890625 40.578125 77.09375 44.375 
Q 74.3125 48.1875 68.609375 48.1875 
Q 61.625 48.1875 57.5625 43.546875 
Q 53.515625 38.921875 53.515625 30.90625 
L 53.515625 0 
L 44.484375 0 
L 44.484375 32.71875 
Q 44.484375 40.625 41.703125 44.40625 
Q 38.921875 48.1875 33.109375 48.1875 
Q 26.21875 48.1875 22.15625 43.53125 
Q 18.109375 38.875 18.109375 30.90625 
L 18.109375 0 
L 9.078125 0 
L 9.078125 54.6875 
L 18.109375 54.6875 
L 18.109375 46.1875 
Q 21.1875 51.21875 25.484375 53.609375 
Q 29.78125 56 35.6875 56 
Q 41.65625 56 45.828125 52.96875 
Q 50 49.953125 52 44.1875 
z
" id="DejaVuSans-6d"/>
      <path d="M 56.203125 29.59375 
L 56.203125 25.203125 
L 14.890625 25.203125 
Q 15.484375 15.921875 20.484375 11.0625 
Q 25.484375 6.203125 34.421875 6.203125 
Q 39.59375 6.203125 44.453125 7.46875 
Q 49.3125 8.734375 54.109375 11.28125 
L 54.109375 2.78125 
Q 49.265625 0.734375 44.1875 -0.34375 
Q 39.109375 -1.421875 33.890625 -1.421875 
Q 20.796875 -1.421875 13.15625 6.1875 
Q 5.515625 13.8125 5.515625 26.8125 
Q 5.515625 40.234375 12.765625 48.109375 
Q 20.015625 56 32.328125 56 
Q 43.359375 56 49.78125 48.890625 
Q 56.203125 41.796875 56.203125 29.59375 
z
M 47.21875 32.234375 
Q 47.125 39.59375 43.09375 43.984375 
Q 39.0625 48.390625 32.421875 48.390625 
Q 24.90625 48.390625 20.390625 44.140625 
Q 15.875 39.890625 15.1875 32.171875 
z
" id="DejaVuSans-65"/>
      <path id="DejaVuSans-20"/>
      <path d="M 8.59375 75.984375 
L 29.296875 75.984375 
L 29.296875 69 
L 17.578125 69 
L 17.578125 -6.203125 
L 29.296875 -6.203125 
L 29.296875 -13.1875 
L 8.59375 -13.1875 
z
" id="DejaVuSans-5b"/>
      <path d="M 54.890625 33.015625 
L 54.890625 0 
L 45.90625 0 
L 45.90625 32.71875 
Q 45.90625 40.484375 42.875 44.328125 
Q 39.84375 48.1875 33.796875 48.1875 
Q 26.515625 48.1875 22.3125 43.546875 
Q 18.109375 38.921875 18.109375 30.90625 
L 18.109375 0 
L 9.078125 0 
L 9.078125 75.984375 
L 18.109375 75.984375 
L 18.109375 46.1875 
Q 21.34375 51.125 25.703125 53.5625 
Q 30.078125 56 35.796875 56 
Q 45.21875 56 50.046875 50.171875 
Q 54.890625 44.34375 54.890625 33.015625 
z
" id="DejaVuSans-68"/>
      <path d="M 30.421875 75.984375 
L 30.421875 -13.1875 
L 9.71875 -13.1875 
L 9.71875 -6.203125 
L 21.390625 -6.203125 
L 21.390625 69 
L 9.71875 69 
L 9.71875 75.984375 
z
" id="DejaVuSans-5d"/>
     </defs>
     <g style="fill:#1a1a1a;" transform="translate(191.348879 280.276563)scale(0.1 -0.1)">
      <use xlink:href="#DejaVuSans-74"/>
      <use x="39.208984" xlink:href="#DejaVuSans-69"/>
      <use x="66.992188" xlink:href="#DejaVuSans-6d"/>
      <use x="164.404297" xlink:href="#DejaVuSans-65"/>
      <use x="225.927734" xlink:href="#DejaVuSans-20"/>
      <use x="257.714844" xlink:href="#DejaVuSans-5b"/>
      <use x="296.728516" xlink:href="#DejaVuSans-68"/>
      <use x="360.107422" xlink:href="#DejaVuSans-5d"/>
     </g>
    </g>
   </g>
   <g id="matplotlib.axis_2">
    <g id="ytick_1">
     <g id="line2d_8">
      <defs>
       <path d="M 0 0 
L -3.5 0 
" id="mbbd0c47c0b" style="stroke:#005321;stroke-width:0.8;"/>
      </defs>
      <g>
       <use style="fill:#005321;stroke:#005321;stroke-width:0.8;" x="90" xlink:href="#mbbd0c47c0b" y="229.698462"/>
      </g>
     </g>
     <g id="text_9">
      <!-- 2.5 -->
      <g style="fill:#005321;" transform="translate(67.096875 233.49768)scale(0.1 -0.1)">
       <use xlink:href="#DejaVuSans-32"/>
       <use x="63.623047" xlink:href="#DejaVuSans-2e"/>
       <use x="95.410156" xlink:href="#DejaVuSans-35"/>
      </g>
     </g>
    </g>
    <g id="ytick_2">
     <g id="line2d_9">
      <g>
       <use style="fill:#005321;stroke:#005321;stroke-width:0.8;" x="90" xlink:href="#mbbd0c47c0b" y="201.821538"/>
      </g>
     </g>
     <g id="text_10">
      <!-- 5.0 -->
      <g style="fill:#005321;" transform="translate(67.096875 205.620757)scale(0.1 -0.1)">
       <use xlink:href="#DejaVuSans-35"/>
       <use x="63.623047" xlink:href="#DejaVuSans-2e"/>
       <use x="95.410156" xlink:href="#DejaVuSans-30"/>
      </g>
     </g>
    </g>
    <g id="ytick_3">
     <g id="line2d_10">
      <g>
       <use style="fill:#005321;stroke:#005321;stroke-width:0.8;" x="90" xlink:href="#mbbd0c47c0b" y="173.944615"/>
      </g>
     </g>
     <g id="text_11">
      <!-- 7.5 -->
      <defs>
       <path d="M 8.203125 72.90625 
L 55.078125 72.90625 
L 55.078125 68.703125 
L 28.609375 0 
L 18.3125 0 
L 43.21875 64.59375 
L 8.203125 64.59375 
z
" id="DejaVuSans-37"/>
      </defs>
      <g style="fill:#005321;" transform="translate(67.096875 177.743834)scale(0.1 -0.1)">
       <use xlink:href="#DejaVuSans-37"/>
       <use x="63.623047" xlink:href="#DejaVuSans-2e"/>
       <use x="95.410156" xlink:href="#DejaVuSans-35"/>
      </g>
     </g>
    </g>
    <g id="ytick_4">
     <g id="line2d_11">
      <g>
       <use style="fill:#005321;stroke:#005321;stroke-width:0.8;" x="90" xlink:href="#mbbd0c47c0b" y="146.067692"/>
      </g>
     </g>
     <g id="text_12">
      <!-- 10.0 -->
      <g style="fill:#005321;" transform="translate(60.734375 149.866911)scale(0.1 -0.1)">
       <use xlink:href="#DejaVuSans-31"/>
       <use x="63.623047" xlink:href="#DejaVuSans-30"/>
       <use x="127.246094" xlink:href="#DejaVuSans-2e"/>
       <use x="159.033203" xlink:href="#DejaVuSans-30"/>
      </g>
     </g>
    </g>
    <g id="ytick_5">
     <g id="line2d_12">
      <g>
       <use style="fill:#005321;stroke:#005321;stroke-width:0.8;" x="90" xlink:href="#mbbd0c47c0b" y="118.190769"/>
      </g>
     </g>
     <g id="text_13">
      <!-- 12.5 -->
      <g style="fill:#005321;" transform="translate(60.734375 121.989988)scale(0.1 -0.1)">
       <use xlink:href="#DejaVuSans-31"/>
       <use x="63.623047" xlink:href="#DejaVuSans-32"/>
       <use x="127.246094" xlink:href="#DejaVuSans-2e"/>
       <use x="159.033203" xlink:href="#DejaVuSans-35"/>
      </g>
     </g>
    </g>
    <g id="ytick_6">
     <g id="line2d_13">
      <g>
       <use style="fill:#005321;stroke:#005321;stroke-width:0.8;" x="90" xlink:href="#mbbd0c47c0b" y="90.313846"/>
      </g>
     </g>
     <g id="text_14">
      <!-- 15.0 -->
      <g style="fill:#005321;" transform="translate(60.734375 94.113065)scale(0.1 -0.1)">
       <use xlink:href="#DejaVuSans-31"/>
       <use x="63.623047" xlink:href="#DejaVuSans-35"/>
       <use x="127.246094" xlink:href="#DejaVuSans-2e"/>
       <use x="159.033203" xlink:href="#DejaVuSans-30"/>
      </g>
     </g>
    </g>
    <g id="ytick_7">
     <g id="line2d_14">
      <g>
       <use style="fill:#005321;stroke:#005321;stroke-width:0.8;" x="90" xlink:href="#mbbd0c47c0b" y="62.436923"/>
      </g>
     </g>
     <g id="text_15">
      <!-- 17.5 -->
      <g style="fill:#005321;" transform="translate(60.734375 66.236142)scale(0.1 -0.1)">
       <use xlink:href="#DejaVuSans-31"/>
       <use x="63.623047" xlink:href="#DejaVuSans-37"/>
       <use x="127.246094" xlink:href="#DejaVuSans-2e"/>
       <use x="159.033203" xlink:href="#DejaVuSans-35"/>
      </g>
     </g>
    </g>
    <g id="ytick_8">
     <g id="line2d_15">
      <g>
       <use style="fill:#005321;stroke:#005321;stroke-width:0.8;" x="90" xlink:href="#mbbd0c47c0b" y="34.56"/>
      </g>
     </g>
     <g id="text_16">
      <!-- 20.0 -->
      <g style="fill:#005321;" transform="translate(60.734375 38.359219)scale(0.1 -0.1)">
       <use xlink:href="#DejaVuSans-32"/>
       <use x="63.623047" xlink:href="#DejaVuSans-30"/>
       <use x="127.246094" xlink:href="#DejaVuSans-2e"/>
       <use x="159.033203" xlink:href="#DejaVuSans-30"/>
      </g>
     </g>
    </g>
    <g id="text_17">
     <!-- Velocity Score [km/h] -->
     <defs>
      <path d="M 28.609375 0 
L 0.78125 72.90625 
L 11.078125 72.90625 
L 34.1875 11.53125 
L 57.328125 72.90625 
L 67.578125 72.90625 
L 39.796875 0 
z
" id="DejaVuSans-56"/>
      <path d="M 9.421875 75.984375 
L 18.40625 75.984375 
L 18.40625 0 
L 9.421875 0 
z
" id="DejaVuSans-6c"/>
      <path d="M 30.609375 48.390625 
Q 23.390625 48.390625 19.1875 42.75 
Q 14.984375 37.109375 14.984375 27.296875 
Q 14.984375 17.484375 19.15625 11.84375 
Q 23.34375 6.203125 30.609375 6.203125 
Q 37.796875 6.203125 41.984375 11.859375 
Q 46.1875 17.53125 46.1875 27.296875 
Q 46.1875 37.015625 41.984375 42.703125 
Q 37.796875 48.390625 30.609375 48.390625 
z
M 30.609375 56 
Q 42.328125 56 49.015625 48.375 
Q 55.71875 40.765625 55.71875 27.296875 
Q 55.71875 13.875 49.015625 6.21875 
Q 42.328125 -1.421875 30.609375 -1.421875 
Q 18.84375 -1.421875 12.171875 6.21875 
Q 5.515625 13.875 5.515625 27.296875 
Q 5.515625 40.765625 12.171875 48.375 
Q 18.84375 56 30.609375 56 
z
" id="DejaVuSans-6f"/>
      <path d="M 48.78125 52.59375 
L 48.78125 44.1875 
Q 44.96875 46.296875 41.140625 47.34375 
Q 37.3125 48.390625 33.40625 48.390625 
Q 24.65625 48.390625 19.8125 42.84375 
Q 14.984375 37.3125 14.984375 27.296875 
Q 14.984375 17.28125 19.8125 11.734375 
Q 24.65625 6.203125 33.40625 6.203125 
Q 37.3125 6.203125 41.140625 7.25 
Q 44.96875 8.296875 48.78125 10.40625 
L 48.78125 2.09375 
Q 45.015625 0.34375 40.984375 -0.53125 
Q 36.96875 -1.421875 32.421875 -1.421875 
Q 20.0625 -1.421875 12.78125 6.34375 
Q 5.515625 14.109375 5.515625 27.296875 
Q 5.515625 40.671875 12.859375 48.328125 
Q 20.21875 56 33.015625 56 
Q 37.15625 56 41.109375 55.140625 
Q 45.0625 54.296875 48.78125 52.59375 
z
" id="DejaVuSans-63"/>
      <path d="M 32.171875 -5.078125 
Q 28.375 -14.84375 24.75 -17.8125 
Q 21.140625 -20.796875 15.09375 -20.796875 
L 7.90625 -20.796875 
L 7.90625 -13.28125 
L 13.1875 -13.28125 
Q 16.890625 -13.28125 18.9375 -11.515625 
Q 21 -9.765625 23.484375 -3.21875 
L 25.09375 0.875 
L 2.984375 54.6875 
L 12.5 54.6875 
L 29.59375 11.921875 
L 46.6875 54.6875 
L 56.203125 54.6875 
z
" id="DejaVuSans-79"/>
      <path d="M 53.515625 70.515625 
L 53.515625 60.890625 
Q 47.90625 63.578125 42.921875 64.890625 
Q 37.9375 66.21875 33.296875 66.21875 
Q 25.25 66.21875 20.875 63.09375 
Q 16.5 59.96875 16.5 54.203125 
Q 16.5 49.359375 19.40625 46.890625 
Q 22.3125 44.4375 30.421875 42.921875 
L 36.375 41.703125 
Q 47.40625 39.59375 52.65625 34.296875 
Q 57.90625 29 57.90625 20.125 
Q 57.90625 9.515625 50.796875 4.046875 
Q 43.703125 -1.421875 29.984375 -1.421875 
Q 24.8125 -1.421875 18.96875 -0.25 
Q 13.140625 0.921875 6.890625 3.21875 
L 6.890625 13.375 
Q 12.890625 10.015625 18.65625 8.296875 
Q 24.421875 6.59375 29.984375 6.59375 
Q 38.421875 6.59375 43.015625 9.90625 
Q 47.609375 13.234375 47.609375 19.390625 
Q 47.609375 24.75 44.3125 27.78125 
Q 41.015625 30.8125 33.5 32.328125 
L 27.484375 33.5 
Q 16.453125 35.6875 11.515625 40.375 
Q 6.59375 45.0625 6.59375 53.421875 
Q 6.59375 63.09375 13.40625 68.65625 
Q 20.21875 74.21875 32.171875 74.21875 
Q 37.3125 74.21875 42.625 73.28125 
Q 47.953125 72.359375 53.515625 70.515625 
z
" id="DejaVuSans-53"/>
      <path d="M 41.109375 46.296875 
Q 39.59375 47.171875 37.8125 47.578125 
Q 36.03125 48 33.890625 48 
Q 26.265625 48 22.1875 43.046875 
Q 18.109375 38.09375 18.109375 28.8125 
L 18.109375 0 
L 9.078125 0 
L 9.078125 54.6875 
L 18.109375 54.6875 
L 18.109375 46.1875 
Q 20.953125 51.171875 25.484375 53.578125 
Q 30.03125 56 36.53125 56 
Q 37.453125 56 38.578125 55.875 
Q 39.703125 55.765625 41.0625 55.515625 
z
" id="DejaVuSans-72"/>
      <path d="M 9.078125 75.984375 
L 18.109375 75.984375 
L 18.109375 31.109375 
L 44.921875 54.6875 
L 56.390625 54.6875 
L 27.390625 29.109375 
L 57.625 0 
L 45.90625 0 
L 18.109375 26.703125 
L 18.109375 0 
L 9.078125 0 
z
" id="DejaVuSans-6b"/>
      <path d="M 25.390625 72.90625 
L 33.6875 72.90625 
L 8.296875 -9.28125 
L 0 -9.28125 
z
" id="DejaVuSans-2f"/>
     </defs>
     <g style="fill:#1a1a1a;" transform="translate(54.654687 197.089375)rotate(-90)scale(0.1 -0.1)">
      <use xlink:href="#DejaVuSans-56"/>
      <use x="68.298828" xlink:href="#DejaVuSans-65"/>
      <use x="129.822266" xlink:href="#DejaVuSans-6c"/>
      <use x="157.605469" xlink:href="#DejaVuSans-6f"/>
      <use x="218.787109" xlink:href="#DejaVuSans-63"/>
      <use x="273.767578" xlink:href="#DejaVuSans-69"/>
      <use x="301.550781" xlink:href="#DejaVuSans-74"/>
      <use x="340.759766" xlink:href="#DejaVuSans-79"/>
      <use x="399.939453" xlink:href="#DejaVuSans-20"/>
      <use x="431.726562" xlink:href="#DejaVuSans-53"/>
      <use x="495.203125" xlink:href="#DejaVuSans-63"/>
      <use x="550.183594" xlink:href="#DejaVuSans-6f"/>
      <use x="611.365234" xlink:href="#DejaVuSans-72"/>
      <use x="652.447266" xlink:href="#DejaVuSans-65"/>
      <use x="713.970703" xlink:href="#DejaVuSans-20"/>
      <use x="745.757812" xlink:href="#DejaVuSans-5b"/>
      <use x="784.771484" xlink:href="#DejaVuSans-6b"/>
      <use x="842.681641" xlink:href="#DejaVuSans-6d"/>
      <use x="940.09375" xlink:href="#DejaVuSans-2f"/>
      <use x="973.785156" xlink:href="#DejaVuSans-68"/>
      <use x="1037.164062" xlink:href="#DejaVuSans-5d"/>
     </g>
    </g>
   </g>
   <g id="line2d_16">
    <defs>
     <path d="M 0 4 
C 1.060812 4 2.078319 3.578535 2.828427 2.828427 
C 3.578535 2.078319 4 1.060812 4 0 
C 4 -1.060812 3.578535 -2.078319 2.828427 -2.828427 
C 2.078319 -3.578535 1.060812 -4 0 -4 
C -1.060812 -4 -2.078319 -3.578535 -2.828427 -2.828427 
C -3.578535 -2.078319 -4 -1.060812 -4 0 
C -4 1.060812 -3.578535 2.078319 -2.828427 2.828427 
C -2.078319 3.578535 -1.060812 4 0 4 
z
" id="me749a5ecef" style="stroke:#aedea7;"/>
    </defs>
    <g clip-path="url(#p8c0df0ba24)">
     <use style="fill:#aedea7;opacity:0.7;stroke:#aedea7;" x="100.917391" xlink:href="#me749a5ecef" y="119.700226"/>
     <use style="fill:#aedea7;opacity:0.7;stroke:#aedea7;" x="104.96087" xlink:href="#me749a5ecef" y="128.299298"/>
     <use style="fill:#aedea7;opacity:0.7;stroke:#aedea7;" x="109.004348" xlink:href="#me749a5ecef" y="133.379986"/>
     <use style="fill:#aedea7;opacity:0.7;stroke:#aedea7;" x="113.047826" xlink:href="#me749a5ecef" y="139.189884"/>
     <use style="fill:#aedea7;opacity:0.7;stroke:#aedea7;" x="117.091304" xlink:href="#me749a5ecef" y="146.587684"/>
     <use style="fill:#aedea7;opacity:0.7;stroke:#aedea7;" x="121.134783" xlink:href="#me749a5ecef" y="155.41273"/>
     <use style="fill:#aedea7;opacity:0.7;stroke:#aedea7;" x="125.178261" xlink:href="#me749a5ecef" y="162.067199"/>
     <use style="fill:#aedea7;opacity:0.7;stroke:#aedea7;" x="129.221739" xlink:href="#me749a5ecef" y="167.416923"/>
     <use style="fill:#aedea7;opacity:0.7;stroke:#aedea7;" x="133.265217" xlink:href="#me749a5ecef" y="171.838553"/>
     <use style="fill:#aedea7;opacity:0.7;stroke:#aedea7;" x="137.308696" xlink:href="#me749a5ecef" y="175.837422"/>
     <use style="fill:#aedea7;opacity:0.7;stroke:#aedea7;" x="141.352174" xlink:href="#me749a5ecef" y="179.39822"/>
     <use style="fill:#aedea7;opacity:0.7;stroke:#aedea7;" x="145.395652" xlink:href="#me749a5ecef" y="182.508675"/>
     <use style="fill:#aedea7;opacity:0.7;stroke:#aedea7;" x="149.43913" xlink:href="#me749a5ecef" y="185.804903"/>
     <use style="fill:#aedea7;opacity:0.7;stroke:#aedea7;" x="153.482609" xlink:href="#me749a5ecef" y="190.333255"/>
     <use style="fill:#aedea7;opacity:0.7;stroke:#aedea7;" x="157.526087" xlink:href="#me749a5ecef" y="193.960243"/>
     <use style="fill:#aedea7;opacity:0.7;stroke:#aedea7;" x="161.569565" xlink:href="#me749a5ecef" y="197.421642"/>
     <use style="fill:#aedea7;opacity:0.7;stroke:#aedea7;" x="165.613043" xlink:href="#me749a5ecef" y="199.118462"/>
     <use style="fill:#aedea7;opacity:0.7;stroke:#aedea7;" x="169.656522" xlink:href="#me749a5ecef" y="201.48374"/>
     <use style="fill:#aedea7;opacity:0.7;stroke:#aedea7;" x="173.7" xlink:href="#me749a5ecef" y="204.390613"/>
     <use style="fill:#aedea7;opacity:0.7;stroke:#aedea7;" x="177.743478" xlink:href="#me749a5ecef" y="206.971275"/>
     <use style="fill:#aedea7;opacity:0.7;stroke:#aedea7;" x="181.786957" xlink:href="#me749a5ecef" y="208.952929"/>
     <use style="fill:#aedea7;opacity:0.7;stroke:#aedea7;" x="185.830435" xlink:href="#me749a5ecef" y="210.321357"/>
     <use style="fill:#aedea7;opacity:0.7;stroke:#aedea7;" x="189.873913" xlink:href="#me749a5ecef" y="211.447397"/>
     <use style="fill:#aedea7;opacity:0.7;stroke:#aedea7;" x="193.917391" xlink:href="#me749a5ecef" y="212.349123"/>
     <use style="fill:#aedea7;opacity:0.7;stroke:#aedea7;" x="197.96087" xlink:href="#me749a5ecef" y="213.398973"/>
     <use style="fill:#aedea7;opacity:0.7;stroke:#aedea7;" x="202.004348" xlink:href="#me749a5ecef" y="215.28203"/>
     <use style="fill:#aedea7;opacity:0.7;stroke:#aedea7;" x="206.047826" xlink:href="#me749a5ecef" y="217.386846"/>
     <use style="fill:#aedea7;opacity:0.7;stroke:#aedea7;" x="210.091304" xlink:href="#me749a5ecef" y="218.994749"/>
     <use style="fill:#aedea7;opacity:0.7;stroke:#aedea7;" x="214.134783" xlink:href="#me749a5ecef" y="219.904226"/>
     <use style="fill:#aedea7;opacity:0.7;stroke:#aedea7;" x="218.178261" xlink:href="#me749a5ecef" y="221.210353"/>
     <use style="fill:#aedea7;opacity:0.7;stroke:#aedea7;" x="222.221739" xlink:href="#me749a5ecef" y="222.595919"/>
     <use style="fill:#aedea7;opacity:0.7;stroke:#aedea7;" x="226.265217" xlink:href="#me749a5ecef" y="222.752299"/>
     <use style="fill:#aedea7;opacity:0.7;stroke:#aedea7;" x="230.308696" xlink:href="#me749a5ecef" y="223.460522"/>
     <use style="fill:#aedea7;opacity:0.7;stroke:#aedea7;" x="234.352174" xlink:href="#me749a5ecef" y="223.319869"/>
     <use style="fill:#aedea7;opacity:0.7;stroke:#aedea7;" x="238.395652" xlink:href="#me749a5ecef" y="224.28187"/>
     <use style="fill:#aedea7;opacity:0.7;stroke:#aedea7;" x="242.43913" xlink:href="#me749a5ecef" y="224.569208"/>
     <use style="fill:#aedea7;opacity:0.7;stroke:#aedea7;" x="246.482609" xlink:href="#me749a5ecef" y="225.620898"/>
     <use style="fill:#aedea7;opacity:0.7;stroke:#aedea7;" x="250.526087" xlink:href="#me749a5ecef" y="226.001838"/>
     <use style="fill:#aedea7;opacity:0.7;stroke:#aedea7;" x="254.569565" xlink:href="#me749a5ecef" y="226.156347"/>
     <use style="fill:#aedea7;opacity:0.7;stroke:#aedea7;" x="258.613043" xlink:href="#me749a5ecef" y="226.674599"/>
     <use style="fill:#aedea7;opacity:0.7;stroke:#aedea7;" x="262.656522" xlink:href="#me749a5ecef" y="227.571533"/>
     <use style="fill:#aedea7;opacity:0.7;stroke:#aedea7;" x="266.7" xlink:href="#me749a5ecef" y="228.267106"/>
     <use style="fill:#aedea7;opacity:0.7;stroke:#aedea7;" x="270.743478" xlink:href="#me749a5ecef" y="228.347077"/>
     <use style="fill:#aedea7;opacity:0.7;stroke:#aedea7;" x="274.786957" xlink:href="#me749a5ecef" y="227.799991"/>
     <use style="fill:#aedea7;opacity:0.7;stroke:#aedea7;" x="278.830435" xlink:href="#me749a5ecef" y="228.127413"/>
     <use style="fill:#aedea7;opacity:0.7;stroke:#aedea7;" x="282.873913" xlink:href="#me749a5ecef" y="228.003371"/>
     <use style="fill:#aedea7;opacity:0.7;stroke:#aedea7;" x="286.917391" xlink:href="#me749a5ecef" y="228.051855"/>
     <use style="fill:#aedea7;opacity:0.7;stroke:#aedea7;" x="290.96087" xlink:href="#me749a5ecef" y="228.532724"/>
     <use style="fill:#aedea7;opacity:0.7;stroke:#aedea7;" x="295.004348" xlink:href="#me749a5ecef" y="229.076141"/>
     <use style="fill:#aedea7;opacity:0.7;stroke:#aedea7;" x="299.047826" xlink:href="#me749a5ecef" y="229.706366"/>
     <use style="fill:#aedea7;opacity:0.7;stroke:#aedea7;" x="303.091304" xlink:href="#me749a5ecef" y="229.981373"/>
     <use style="fill:#aedea7;opacity:0.7;stroke:#aedea7;" x="307.134783" xlink:href="#me749a5ecef" y="230.856103"/>
     <use style="fill:#aedea7;opacity:0.7;stroke:#aedea7;" x="311.178261" xlink:href="#me749a5ecef" y="231.150244"/>
     <use style="fill:#aedea7;opacity:0.7;stroke:#aedea7;" x="315.221739" xlink:href="#me749a5ecef" y="231.099971"/>
     <use style="fill:#aedea7;opacity:0.7;stroke:#aedea7;" x="319.265217" xlink:href="#me749a5ecef" y="230.369937"/>
     <use style="fill:#aedea7;opacity:0.7;stroke:#aedea7;" x="323.308696" xlink:href="#me749a5ecef" y="230.204154"/>
     <use style="fill:#aedea7;opacity:0.7;stroke:#aedea7;" x="327.352174" xlink:href="#me749a5ecef" y="230.909406"/>
     <use style="fill:#aedea7;opacity:0.7;stroke:#aedea7;" x="331.395652" xlink:href="#me749a5ecef" y="231.495584"/>
    </g>
   </g>
   <g id="line2d_17">
    <path clip-path="url(#p8c0df0ba24)" d="M 90 105.510019 
L 94.375708 113.779975 
L 98.751416 121.549894 
L 103.127124 128.850013 
L 107.502832 135.708736 
L 111.87854 142.152753 
L 116.254248 148.207137 
L 120.629956 153.895449 
L 125.005664 159.239821 
L 129.381371 164.261051 
L 134.243269 169.484925 
L 139.105167 174.359046 
L 143.967065 178.906834 
L 148.828962 183.150135 
L 153.69086 187.109336 
L 158.552758 190.803459 
L 163.900845 194.581975 
L 169.248933 198.083162 
L 174.59702 201.327375 
L 180.431297 204.595565 
L 186.265575 207.602969 
L 192.099852 210.370396 
L 198.420319 213.119808 
L 204.740786 215.632357 
L 211.547443 218.096653 
L 218.3541 220.333097 
L 225.646946 222.500336 
L 233.425982 224.576747 
L 241.691209 226.544688 
L 250.442624 228.390543 
L 259.68023 230.10463 
L 269.404025 231.68099 
L 280.1002 233.180395 
L 291.282565 234.521758 
L 303.437309 235.756599 
L 317.050623 236.907962 
L 331.636316 237.917207 
L 332.608696 237.977321 
L 332.608696 237.977321 
" style="fill:none;stroke:#37a055;stroke-linecap:square;stroke-width:3;"/>
   </g>
   <g id="patch_3">
    <path d="M 90 252 
L 90 34.56 
" style="fill:none;stroke:#1a1a1a;stroke-linecap:square;stroke-linejoin:miter;stroke-width:0.8;"/>
   </g>
   <g id="patch_4">
    <path d="M 332.608696 252 
L 332.608696 34.56 
" style="fill:none;stroke:#1a1a1a;stroke-linecap:square;stroke-linejoin:miter;stroke-width:0.8;"/>
   </g>
   <g id="patch_5">
    <path d="M 90 252 
L 332.608696 252 
" style="fill:none;stroke:#1a1a1a;stroke-linecap:square;stroke-linejoin:miter;stroke-width:0.8;"/>
   </g>
   <g id="patch_6">
    <path d="M 90 34.56 
L 332.608696 34.56 
" style="fill:none;stroke:#1a1a1a;stroke-linecap:square;stroke-linejoin:miter;stroke-width:0.8;"/>
   </g>
   <g id="text_18">
    <!-- Paris -->
    <defs>
     <path d="M 19.671875 64.796875 
L 19.671875 37.40625 
L 32.078125 37.40625 
Q 38.96875 37.40625 42.71875 40.96875 
Q 46.484375 44.53125 46.484375 51.125 
Q 46.484375 57.671875 42.71875 61.234375 
Q 38.96875 64.796875 32.078125 64.796875 
z
M 9.8125 72.90625 
L 32.078125 72.90625 
Q 44.34375 72.90625 50.609375 67.359375 
Q 56.890625 61.8125 56.890625 51.125 
Q 56.890625 40.328125 50.609375 34.8125 
Q 44.34375 29.296875 32.078125 29.296875 
L 19.671875 29.296875 
L 19.671875 0 
L 9.8125 0 
z
" id="DejaVuSans-50"/>
     <path d="M 34.28125 27.484375 
Q 23.390625 27.484375 19.1875 25 
Q 14.984375 22.515625 14.984375 16.5 
Q 14.984375 11.71875 18.140625 8.90625 
Q 21.296875 6.109375 26.703125 6.109375 
Q 34.1875 6.109375 38.703125 11.40625 
Q 43.21875 16.703125 43.21875 25.484375 
L 43.21875 27.484375 
z
M 52.203125 31.203125 
L 52.203125 0 
L 43.21875 0 
L 43.21875 8.296875 
Q 40.140625 3.328125 35.546875 0.953125 
Q 30.953125 -1.421875 24.3125 -1.421875 
Q 15.921875 -1.421875 10.953125 3.296875 
Q 6 8.015625 6 15.921875 
Q 6 25.140625 12.171875 29.828125 
Q 18.359375 34.515625 30.609375 34.515625 
L 43.21875 34.515625 
L 43.21875 35.40625 
Q 43.21875 41.609375 39.140625 45 
Q 35.0625 48.390625 27.6875 48.390625 
Q 23 48.390625 18.546875 47.265625 
Q 14.109375 46.140625 10.015625 43.890625 
L 10.015625 52.203125 
Q 14.9375 54.109375 19.578125 55.046875 
Q 24.21875 56 28.609375 56 
Q 40.484375 56 46.34375 49.84375 
Q 52.203125 43.703125 52.203125 31.203125 
z
" id="DejaVuSans-61"/>
     <path d="M 44.28125 53.078125 
L 44.28125 44.578125 
Q 40.484375 46.53125 36.375 47.5 
Q 32.28125 48.484375 27.875 48.484375 
Q 21.1875 48.484375 17.84375 46.4375 
Q 14.5 44.390625 14.5 40.28125 
Q 14.5 37.15625 16.890625 35.375 
Q 19.28125 33.59375 26.515625 31.984375 
L 29.59375 31.296875 
Q 39.15625 29.25 43.1875 25.515625 
Q 47.21875 21.78125 47.21875 15.09375 
Q 47.21875 7.46875 41.1875 3.015625 
Q 35.15625 -1.421875 24.609375 -1.421875 
Q 20.21875 -1.421875 15.453125 -0.5625 
Q 10.6875 0.296875 5.421875 2 
L 5.421875 11.28125 
Q 10.40625 8.6875 15.234375 7.390625 
Q 20.0625 6.109375 24.8125 6.109375 
Q 31.15625 6.109375 34.5625 8.28125 
Q 37.984375 10.453125 37.984375 14.40625 
Q 37.984375 18.0625 35.515625 20.015625 
Q 33.0625 21.96875 24.703125 23.78125 
L 21.578125 24.515625 
Q 13.234375 26.265625 9.515625 29.90625 
Q 5.8125 33.546875 5.8125 39.890625 
Q 5.8125 47.609375 11.28125 51.796875 
Q 16.75 56 26.8125 56 
Q 31.78125 56 36.171875 55.265625 
Q 40.578125 54.546875 44.28125 53.078125 
z
" id="DejaVuSans-73"/>
    </defs>
    <g style="fill:#1a1a1a;" transform="translate(196.754348 28.56)scale(0.12 -0.12)">
     <use xlink:href="#DejaVuSans-50"/>
     <use x="60.240234" xlink:href="#DejaVuSans-61"/>
     <use x="121.519531" xlink:href="#DejaVuSans-72"/>
     <use x="162.632812" xlink:href="#DejaVuSans-69"/>
     <use x="190.416016" xlink:href="#DejaVuSans-73"/>
    </g>
   </g>
   <g id="legend_1">
    <g id="patch_7">
     <path d="M 241.308696 57.238125 
L 325.608696 57.238125 
Q 327.608696 57.238125 327.608696 55.238125 
L 327.608696 41.56 
Q 327.608696 39.56 325.608696 39.56 
L 241.308696 39.56 
Q 239.308696 39.56 239.308696 41.56 
L 239.308696 55.238125 
Q 239.308696 57.238125 241.308696 57.238125 
z
" style="fill:#ffffff;opacity:0.8;stroke:#cccccc;stroke-linejoin:miter;"/>
    </g>
    <g id="line2d_18">
     <path d="M 243.308696 47.658437 
L 263.308696 47.658437 
" style="fill:none;stroke:#37a055;stroke-linecap:square;stroke-width:3;"/>
    </g>
    <g id="line2d_19"/>
    <g id="text_19">
     <!-- vel $\tau = 0.9$ -->
     <defs>
      <path d="M 2.984375 54.6875 
L 12.5 54.6875 
L 29.59375 8.796875 
L 46.6875 54.6875 
L 56.203125 54.6875 
L 35.6875 0 
L 23.484375 0 
z
" id="DejaVuSans-76"/>
      <path d="M 32.859375 9.96875 
Q 34.1875 7.625 39.453125 7.625 
L 43.75 7.625 
L 42.28125 0 
L 36.921875 0 
Q 28.125 0 25 4.6875 
Q 21.921875 9.46875 23.96875 19.828125 
L 29 45.703125 
L 8.453125 45.703125 
L 10.203125 54.6875 
L 60.640625 54.6875 
L 58.890625 45.703125 
L 38.1875 45.703125 
L 33.015625 19.28125 
Q 31.640625 12.203125 32.859375 9.96875 
z
" id="DejaVuSans-Oblique-3c4"/>
      <path d="M 10.59375 45.40625 
L 73.1875 45.40625 
L 73.1875 37.203125 
L 10.59375 37.203125 
z
M 10.59375 25.484375 
L 73.1875 25.484375 
L 73.1875 17.1875 
L 10.59375 17.1875 
z
" id="DejaVuSans-3d"/>
      <path d="M 10.984375 1.515625 
L 10.984375 10.5 
Q 14.703125 8.734375 18.5 7.8125 
Q 22.3125 6.890625 25.984375 6.890625 
Q 35.75 6.890625 40.890625 13.453125 
Q 46.046875 20.015625 46.78125 33.40625 
Q 43.953125 29.203125 39.59375 26.953125 
Q 35.25 24.703125 29.984375 24.703125 
Q 19.046875 24.703125 12.671875 31.3125 
Q 6.296875 37.9375 6.296875 49.421875 
Q 6.296875 60.640625 12.9375 67.421875 
Q 19.578125 74.21875 30.609375 74.21875 
Q 43.265625 74.21875 49.921875 64.515625 
Q 56.59375 54.828125 56.59375 36.375 
Q 56.59375 19.140625 48.40625 8.859375 
Q 40.234375 -1.421875 26.421875 -1.421875 
Q 22.703125 -1.421875 18.890625 -0.6875 
Q 15.09375 0.046875 10.984375 1.515625 
z
M 30.609375 32.421875 
Q 37.25 32.421875 41.125 36.953125 
Q 45.015625 41.5 45.015625 49.421875 
Q 45.015625 57.28125 41.125 61.84375 
Q 37.25 66.40625 30.609375 66.40625 
Q 23.96875 66.40625 20.09375 61.84375 
Q 16.21875 57.28125 16.21875 49.421875 
Q 16.21875 41.5 20.09375 36.953125 
Q 23.96875 32.421875 30.609375 32.421875 
z
" id="DejaVuSans-39"/>
     </defs>
     <g style="fill:#1a1a1a;" transform="translate(271.308696 51.158437)scale(0.1 -0.1)">
      <use transform="translate(0 0.015625)" xlink:href="#DejaVuSans-76"/>
      <use transform="translate(59.179688 0.015625)" xlink:href="#DejaVuSans-65"/>
      <use transform="translate(120.703125 0.015625)" xlink:href="#DejaVuSans-6c"/>
      <use transform="translate(148.486328 0.015625)" xlink:href="#DejaVuSans-20"/>
      <use transform="translate(180.273438 0.015625)" xlink:href="#DejaVuSans-Oblique-3c4"/>
      <use transform="translate(259.960938 0.015625)" xlink:href="#DejaVuSans-3d"/>
      <use transform="translate(363.232422 0.015625)" xlink:href="#DejaVuSans-30"/>
      <use transform="translate(426.855469 0.015625)" xlink:href="#DejaVuSans-2e"/>
      <use transform="translate(458.642578 0.015625)" xlink:href="#DejaVuSans-39"/>
     </g>
    </g>
   </g>
  </g>
  <g id="axes_2">
   <g id="patch_8">
    <path d="M 405.391304 252 
L 648 252 
L 648 34.56 
L 405.391304 34.56 
z
" style="fill:none;"/>
   </g>
   <g id="matplotlib.axis_3">
    <g id="xtick_8">
     <g id="line2d_20">
      <g>
       <use style="fill:#1a1a1a;stroke:#1a1a1a;stroke-width:0.8;" x="405.391304" xlink:href="#mcc7ffbf6ea" y="252"/>
      </g>
     </g>
     <g id="text_20">
      <!-- 0.0 -->
      <g style="fill:#1a1a1a;" transform="translate(397.439742 266.598437)scale(0.1 -0.1)">
       <use xlink:href="#DejaVuSans-30"/>
       <use x="63.623047" xlink:href="#DejaVuSans-2e"/>
       <use x="95.410156" xlink:href="#DejaVuSans-30"/>
      </g>
     </g>
    </g>
    <g id="xtick_9">
     <g id="line2d_21">
      <g>
       <use style="fill:#1a1a1a;stroke:#1a1a1a;stroke-width:0.8;" x="445.826087" xlink:href="#mcc7ffbf6ea" y="252"/>
      </g>
     </g>
     <g id="text_21">
      <!-- 0.5 -->
      <g style="fill:#1a1a1a;" transform="translate(437.874524 266.598437)scale(0.1 -0.1)">
       <use xlink:href="#DejaVuSans-30"/>
       <use x="63.623047" xlink:href="#DejaVuSans-2e"/>
       <use x="95.410156" xlink:href="#DejaVuSans-35"/>
      </g>
     </g>
    </g>
    <g id="xtick_10">
     <g id="line2d_22">
      <g>
       <use style="fill:#1a1a1a;stroke:#1a1a1a;stroke-width:0.8;" x="486.26087" xlink:href="#mcc7ffbf6ea" y="252"/>
      </g>
     </g>
     <g id="text_22">
      <!-- 1.0 -->
      <g style="fill:#1a1a1a;" transform="translate(478.309307 266.598437)scale(0.1 -0.1)">
       <use xlink:href="#DejaVuSans-31"/>
       <use x="63.623047" xlink:href="#DejaVuSans-2e"/>
       <use x="95.410156" xlink:href="#DejaVuSans-30"/>
      </g>
     </g>
    </g>
    <g id="xtick_11">
     <g id="line2d_23">
      <g>
       <use style="fill:#1a1a1a;stroke:#1a1a1a;stroke-width:0.8;" x="526.695652" xlink:href="#mcc7ffbf6ea" y="252"/>
      </g>
     </g>
     <g id="text_23">
      <!-- 1.5 -->
      <g style="fill:#1a1a1a;" transform="translate(518.74409 266.598437)scale(0.1 -0.1)">
       <use xlink:href="#DejaVuSans-31"/>
       <use x="63.623047" xlink:href="#DejaVuSans-2e"/>
       <use x="95.410156" xlink:href="#DejaVuSans-35"/>
      </g>
     </g>
    </g>
    <g id="xtick_12">
     <g id="line2d_24">
      <g>
       <use style="fill:#1a1a1a;stroke:#1a1a1a;stroke-width:0.8;" x="567.130435" xlink:href="#mcc7ffbf6ea" y="252"/>
      </g>
     </g>
     <g id="text_24">
      <!-- 2.0 -->
      <g style="fill:#1a1a1a;" transform="translate(559.178872 266.598437)scale(0.1 -0.1)">
       <use xlink:href="#DejaVuSans-32"/>
       <use x="63.623047" xlink:href="#DejaVuSans-2e"/>
       <use x="95.410156" xlink:href="#DejaVuSans-30"/>
      </g>
     </g>
    </g>
    <g id="xtick_13">
     <g id="line2d_25">
      <g>
       <use style="fill:#1a1a1a;stroke:#1a1a1a;stroke-width:0.8;" x="607.565217" xlink:href="#mcc7ffbf6ea" y="252"/>
      </g>
     </g>
     <g id="text_25">
      <!-- 2.5 -->
      <g style="fill:#1a1a1a;" transform="translate(599.613655 266.598437)scale(0.1 -0.1)">
       <use xlink:href="#DejaVuSans-32"/>
       <use x="63.623047" xlink:href="#DejaVuSans-2e"/>
       <use x="95.410156" xlink:href="#DejaVuSans-35"/>
      </g>
     </g>
    </g>
    <g id="xtick_14">
     <g id="line2d_26">
      <g>
       <use style="fill:#1a1a1a;stroke:#1a1a1a;stroke-width:0.8;" x="648" xlink:href="#mcc7ffbf6ea" y="252"/>
      </g>
     </g>
     <g id="text_26">
      <!-- 3.0 -->
      <g style="fill:#1a1a1a;" transform="translate(640.048438 266.598437)scale(0.1 -0.1)">
       <use xlink:href="#DejaVuSans-33"/>
       <use x="63.623047" xlink:href="#DejaVuSans-2e"/>
       <use x="95.410156" xlink:href="#DejaVuSans-30"/>
      </g>
     </g>
    </g>
    <g id="text_27">
     <!-- time [h] -->
     <g style="fill:#1a1a1a;" transform="translate(506.740183 280.276563)scale(0.1 -0.1)">
      <use xlink:href="#DejaVuSans-74"/>
      <use x="39.208984" xlink:href="#DejaVuSans-69"/>
      <use x="66.992188" xlink:href="#DejaVuSans-6d"/>
      <use x="164.404297" xlink:href="#DejaVuSans-65"/>
      <use x="225.927734" xlink:href="#DejaVuSans-20"/>
      <use x="257.714844" xlink:href="#DejaVuSans-5b"/>
      <use x="296.728516" xlink:href="#DejaVuSans-68"/>
      <use x="360.107422" xlink:href="#DejaVuSans-5d"/>
     </g>
    </g>
   </g>
   <g id="matplotlib.axis_4">
    <g id="ytick_9">
     <g id="line2d_27">
      <defs>
       <path d="M 0 0 
L -3.5 0 
" id="m7a2efa61b8" style="stroke:#083c7d;stroke-width:0.8;"/>
      </defs>
      <g>
       <use style="fill:#083c7d;stroke:#083c7d;stroke-width:0.8;" x="405.391304" xlink:href="#m7a2efa61b8" y="242.975787"/>
      </g>
     </g>
     <g id="text_28">
      <!-- 0 -->
      <g style="fill:#083c7d;" transform="translate(392.028804 246.775006)scale(0.1 -0.1)">
       <use xlink:href="#DejaVuSans-30"/>
      </g>
     </g>
    </g>
    <g id="ytick_10">
     <g id="line2d_28">
      <g>
       <use style="fill:#083c7d;stroke:#083c7d;stroke-width:0.8;" x="405.391304" xlink:href="#m7a2efa61b8" y="199.176519"/>
      </g>
     </g>
     <g id="text_29">
      <!-- 1 -->
      <g style="fill:#083c7d;" transform="translate(392.028804 202.975737)scale(0.1 -0.1)">
       <use xlink:href="#DejaVuSans-31"/>
      </g>
     </g>
    </g>
    <g id="ytick_11">
     <g id="line2d_29">
      <g>
       <use style="fill:#083c7d;stroke:#083c7d;stroke-width:0.8;" x="405.391304" xlink:href="#m7a2efa61b8" y="155.37725"/>
      </g>
     </g>
     <g id="text_30">
      <!-- 2 -->
      <g style="fill:#083c7d;" transform="translate(392.028804 159.176468)scale(0.1 -0.1)">
       <use xlink:href="#DejaVuSans-32"/>
      </g>
     </g>
    </g>
    <g id="ytick_12">
     <g id="line2d_30">
      <g>
       <use style="fill:#083c7d;stroke:#083c7d;stroke-width:0.8;" x="405.391304" xlink:href="#m7a2efa61b8" y="111.577981"/>
      </g>
     </g>
     <g id="text_31">
      <!-- 3 -->
      <g style="fill:#083c7d;" transform="translate(392.028804 115.3772)scale(0.1 -0.1)">
       <use xlink:href="#DejaVuSans-33"/>
      </g>
     </g>
    </g>
    <g id="ytick_13">
     <g id="line2d_31">
      <g>
       <use style="fill:#083c7d;stroke:#083c7d;stroke-width:0.8;" x="405.391304" xlink:href="#m7a2efa61b8" y="67.778712"/>
      </g>
     </g>
     <g id="text_32">
      <!-- 4 -->
      <defs>
       <path d="M 37.796875 64.3125 
L 12.890625 25.390625 
L 37.796875 25.390625 
z
M 35.203125 72.90625 
L 47.609375 72.90625 
L 47.609375 25.390625 
L 58.015625 25.390625 
L 58.015625 17.1875 
L 47.609375 17.1875 
L 47.609375 0 
L 37.796875 0 
L 37.796875 17.1875 
L 4.890625 17.1875 
L 4.890625 26.703125 
z
" id="DejaVuSans-34"/>
      </defs>
      <g style="fill:#083c7d;" transform="translate(392.028804 71.577931)scale(0.1 -0.1)">
       <use xlink:href="#DejaVuSans-34"/>
      </g>
     </g>
    </g>
    <g id="text_33">
     <!-- Sociality Score -->
     <g style="fill:#1a1a1a;" transform="translate(374.751304 180.115938)rotate(-90)scale(0.1 -0.1)">
      <use xlink:href="#DejaVuSans-53"/>
      <use x="63.476562" xlink:href="#DejaVuSans-6f"/>
      <use x="124.658203" xlink:href="#DejaVuSans-63"/>
      <use x="179.638672" xlink:href="#DejaVuSans-69"/>
      <use x="207.421875" xlink:href="#DejaVuSans-61"/>
      <use x="268.701172" xlink:href="#DejaVuSans-6c"/>
      <use x="296.484375" xlink:href="#DejaVuSans-69"/>
      <use x="324.267578" xlink:href="#DejaVuSans-74"/>
      <use x="363.476562" xlink:href="#DejaVuSans-79"/>
      <use x="422.65625" xlink:href="#DejaVuSans-20"/>
      <use x="454.443359" xlink:href="#DejaVuSans-53"/>
      <use x="517.919922" xlink:href="#DejaVuSans-63"/>
      <use x="572.900391" xlink:href="#DejaVuSans-6f"/>
      <use x="634.082031" xlink:href="#DejaVuSans-72"/>
      <use x="675.164062" xlink:href="#DejaVuSans-65"/>
     </g>
     <!-- [milions people] -->
     <defs>
      <path d="M 54.890625 33.015625 
L 54.890625 0 
L 45.90625 0 
L 45.90625 32.71875 
Q 45.90625 40.484375 42.875 44.328125 
Q 39.84375 48.1875 33.796875 48.1875 
Q 26.515625 48.1875 22.3125 43.546875 
Q 18.109375 38.921875 18.109375 30.90625 
L 18.109375 0 
L 9.078125 0 
L 9.078125 54.6875 
L 18.109375 54.6875 
L 18.109375 46.1875 
Q 21.34375 51.125 25.703125 53.5625 
Q 30.078125 56 35.796875 56 
Q 45.21875 56 50.046875 50.171875 
Q 54.890625 44.34375 54.890625 33.015625 
z
" id="DejaVuSans-6e"/>
      <path d="M 18.109375 8.203125 
L 18.109375 -20.796875 
L 9.078125 -20.796875 
L 9.078125 54.6875 
L 18.109375 54.6875 
L 18.109375 46.390625 
Q 20.953125 51.265625 25.265625 53.625 
Q 29.59375 56 35.59375 56 
Q 45.5625 56 51.78125 48.09375 
Q 58.015625 40.1875 58.015625 27.296875 
Q 58.015625 14.40625 51.78125 6.484375 
Q 45.5625 -1.421875 35.59375 -1.421875 
Q 29.59375 -1.421875 25.265625 0.953125 
Q 20.953125 3.328125 18.109375 8.203125 
z
M 48.6875 27.296875 
Q 48.6875 37.203125 44.609375 42.84375 
Q 40.53125 48.484375 33.40625 48.484375 
Q 26.265625 48.484375 22.1875 42.84375 
Q 18.109375 37.203125 18.109375 27.296875 
Q 18.109375 17.390625 22.1875 11.75 
Q 26.265625 6.109375 33.40625 6.109375 
Q 40.53125 6.109375 44.609375 11.75 
Q 48.6875 17.390625 48.6875 27.296875 
z
" id="DejaVuSans-70"/>
     </defs>
     <g style="fill:#1a1a1a;" transform="translate(385.949117 183.590937)rotate(-90)scale(0.1 -0.1)">
      <use xlink:href="#DejaVuSans-5b"/>
      <use x="39.013672" xlink:href="#DejaVuSans-6d"/>
      <use x="136.425781" xlink:href="#DejaVuSans-69"/>
      <use x="164.208984" xlink:href="#DejaVuSans-6c"/>
      <use x="191.992188" xlink:href="#DejaVuSans-69"/>
      <use x="219.775391" xlink:href="#DejaVuSans-6f"/>
      <use x="280.957031" xlink:href="#DejaVuSans-6e"/>
      <use x="344.335938" xlink:href="#DejaVuSans-73"/>
      <use x="396.435547" xlink:href="#DejaVuSans-20"/>
      <use x="428.222656" xlink:href="#DejaVuSans-70"/>
      <use x="491.699219" xlink:href="#DejaVuSans-65"/>
      <use x="553.222656" xlink:href="#DejaVuSans-6f"/>
      <use x="614.404297" xlink:href="#DejaVuSans-70"/>
      <use x="677.880859" xlink:href="#DejaVuSans-6c"/>
      <use x="705.664062" xlink:href="#DejaVuSans-65"/>
      <use x="767.1875" xlink:href="#DejaVuSans-5d"/>
     </g>
    </g>
   </g>
   <g id="line2d_32">
    <defs>
     <path d="M 0 4 
C 1.060812 4 2.078319 3.578535 2.828427 2.828427 
C 3.578535 2.078319 4 1.060812 4 0 
C 4 -1.060812 3.578535 -2.078319 2.828427 -2.828427 
C 2.078319 -3.578535 1.060812 -4 0 -4 
C -1.060812 -4 -2.078319 -3.578535 -2.828427 -2.828427 
C -3.578535 -2.078319 -4 -1.060812 -4 0 
C -4 1.060812 -3.578535 2.078319 -2.828427 2.828427 
C -2.078319 3.578535 -1.060812 4 0 4 
z
" id="me14d524e4d" style="stroke:#abd0e6;"/>
    </defs>
    <g clip-path="url(#p2e9661d450)">
     <use style="fill:#abd0e6;opacity:0.7;stroke:#abd0e6;" x="416.308696" xlink:href="#me14d524e4d" y="98.808797"/>
     <use style="fill:#abd0e6;opacity:0.7;stroke:#abd0e6;" x="420.352174" xlink:href="#me14d524e4d" y="106.320364"/>
     <use style="fill:#abd0e6;opacity:0.7;stroke:#abd0e6;" x="424.395652" xlink:href="#me14d524e4d" y="112.447848"/>
     <use style="fill:#abd0e6;opacity:0.7;stroke:#abd0e6;" x="428.43913" xlink:href="#me14d524e4d" y="119.162032"/>
     <use style="fill:#abd0e6;opacity:0.7;stroke:#abd0e6;" x="432.482609" xlink:href="#me14d524e4d" y="127.638446"/>
     <use style="fill:#abd0e6;opacity:0.7;stroke:#abd0e6;" x="436.526087" xlink:href="#me14d524e4d" y="137.933967"/>
     <use style="fill:#abd0e6;opacity:0.7;stroke:#abd0e6;" x="440.569565" xlink:href="#me14d524e4d" y="147.562841"/>
     <use style="fill:#abd0e6;opacity:0.7;stroke:#abd0e6;" x="444.613043" xlink:href="#me14d524e4d" y="156.093529"/>
     <use style="fill:#abd0e6;opacity:0.7;stroke:#abd0e6;" x="448.656522" xlink:href="#me14d524e4d" y="163.840824"/>
     <use style="fill:#abd0e6;opacity:0.7;stroke:#abd0e6;" x="452.7" xlink:href="#me14d524e4d" y="171.309266"/>
     <use style="fill:#abd0e6;opacity:0.7;stroke:#abd0e6;" x="456.743478" xlink:href="#me14d524e4d" y="177.162261"/>
     <use style="fill:#abd0e6;opacity:0.7;stroke:#abd0e6;" x="460.786957" xlink:href="#me14d524e4d" y="183.094388"/>
     <use style="fill:#abd0e6;opacity:0.7;stroke:#abd0e6;" x="464.830435" xlink:href="#me14d524e4d" y="188.404953"/>
     <use style="fill:#abd0e6;opacity:0.7;stroke:#abd0e6;" x="468.873913" xlink:href="#me14d524e4d" y="194.729313"/>
     <use style="fill:#abd0e6;opacity:0.7;stroke:#abd0e6;" x="472.917391" xlink:href="#me14d524e4d" y="200.572974"/>
     <use style="fill:#abd0e6;opacity:0.7;stroke:#abd0e6;" x="476.96087" xlink:href="#me14d524e4d" y="205.283702"/>
     <use style="fill:#abd0e6;opacity:0.7;stroke:#abd0e6;" x="481.004348" xlink:href="#me14d524e4d" y="208.722312"/>
     <use style="fill:#abd0e6;opacity:0.7;stroke:#abd0e6;" x="485.047826" xlink:href="#me14d524e4d" y="211.713804"/>
     <use style="fill:#abd0e6;opacity:0.7;stroke:#abd0e6;" x="489.091304" xlink:href="#me14d524e4d" y="215.528651"/>
     <use style="fill:#abd0e6;opacity:0.7;stroke:#abd0e6;" x="493.134783" xlink:href="#me14d524e4d" y="218.616285"/>
     <use style="fill:#abd0e6;opacity:0.7;stroke:#abd0e6;" x="497.178261" xlink:href="#me14d524e4d" y="221.112997"/>
     <use style="fill:#abd0e6;opacity:0.7;stroke:#abd0e6;" x="501.221739" xlink:href="#me14d524e4d" y="223.071471"/>
     <use style="fill:#abd0e6;opacity:0.7;stroke:#abd0e6;" x="505.265217" xlink:href="#me14d524e4d" y="224.674687"/>
     <use style="fill:#abd0e6;opacity:0.7;stroke:#abd0e6;" x="509.308696" xlink:href="#me14d524e4d" y="226.250929"/>
     <use style="fill:#abd0e6;opacity:0.7;stroke:#abd0e6;" x="513.352174" xlink:href="#me14d524e4d" y="227.713093"/>
     <use style="fill:#abd0e6;opacity:0.7;stroke:#abd0e6;" x="517.395652" xlink:href="#me14d524e4d" y="229.391074"/>
     <use style="fill:#abd0e6;opacity:0.7;stroke:#abd0e6;" x="521.43913" xlink:href="#me14d524e4d" y="231.134989"/>
     <use style="fill:#abd0e6;opacity:0.7;stroke:#abd0e6;" x="525.482609" xlink:href="#me14d524e4d" y="232.54662"/>
     <use style="fill:#abd0e6;opacity:0.7;stroke:#abd0e6;" x="529.526087" xlink:href="#me14d524e4d" y="233.535667"/>
     <use style="fill:#abd0e6;opacity:0.7;stroke:#abd0e6;" x="533.569565" xlink:href="#me14d524e4d" y="234.902798"/>
     <use style="fill:#abd0e6;opacity:0.7;stroke:#abd0e6;" x="537.613043" xlink:href="#me14d524e4d" y="236.074041"/>
     <use style="fill:#abd0e6;opacity:0.7;stroke:#abd0e6;" x="541.656522" xlink:href="#me14d524e4d" y="236.604683"/>
     <use style="fill:#abd0e6;opacity:0.7;stroke:#abd0e6;" x="545.7" xlink:href="#me14d524e4d" y="237.166905"/>
     <use style="fill:#abd0e6;opacity:0.7;stroke:#abd0e6;" x="549.743478" xlink:href="#me14d524e4d" y="237.292509"/>
     <use style="fill:#abd0e6;opacity:0.7;stroke:#abd0e6;" x="553.786957" xlink:href="#me14d524e4d" y="237.697579"/>
     <use style="fill:#abd0e6;opacity:0.7;stroke:#abd0e6;" x="557.830435" xlink:href="#me14d524e4d" y="237.910727"/>
     <use style="fill:#abd0e6;opacity:0.7;stroke:#abd0e6;" x="561.873913" xlink:href="#me14d524e4d" y="238.481199"/>
     <use style="fill:#abd0e6;opacity:0.7;stroke:#abd0e6;" x="565.917391" xlink:href="#me14d524e4d" y="238.690239"/>
     <use style="fill:#abd0e6;opacity:0.7;stroke:#abd0e6;" x="569.96087" xlink:href="#me14d524e4d" y="238.730202"/>
     <use style="fill:#abd0e6;opacity:0.7;stroke:#abd0e6;" x="574.004348" xlink:href="#me14d524e4d" y="239.152201"/>
     <use style="fill:#abd0e6;opacity:0.7;stroke:#abd0e6;" x="578.047826" xlink:href="#me14d524e4d" y="239.486426"/>
     <use style="fill:#abd0e6;opacity:0.7;stroke:#abd0e6;" x="582.091304" xlink:href="#me14d524e4d" y="239.673422"/>
     <use style="fill:#abd0e6;opacity:0.7;stroke:#abd0e6;" x="586.134783" xlink:href="#me14d524e4d" y="239.948512"/>
     <use style="fill:#abd0e6;opacity:0.7;stroke:#abd0e6;" x="590.178261" xlink:href="#me14d524e4d" y="240.056701"/>
     <use style="fill:#abd0e6;opacity:0.7;stroke:#abd0e6;" x="594.221739" xlink:href="#me14d524e4d" y="240.469965"/>
     <use style="fill:#abd0e6;opacity:0.7;stroke:#abd0e6;" x="598.265217" xlink:href="#me14d524e4d" y="240.513321"/>
     <use style="fill:#abd0e6;opacity:0.7;stroke:#abd0e6;" x="602.308696" xlink:href="#me14d524e4d" y="240.523056"/>
     <use style="fill:#abd0e6;opacity:0.7;stroke:#abd0e6;" x="606.352174" xlink:href="#me14d524e4d" y="240.778007"/>
     <use style="fill:#abd0e6;opacity:0.7;stroke:#abd0e6;" x="610.395652" xlink:href="#me14d524e4d" y="240.956404"/>
     <use style="fill:#abd0e6;opacity:0.7;stroke:#abd0e6;" x="614.43913" xlink:href="#me14d524e4d" y="241.260627"/>
     <use style="fill:#abd0e6;opacity:0.7;stroke:#abd0e6;" x="618.482609" xlink:href="#me14d524e4d" y="241.525059"/>
     <use style="fill:#abd0e6;opacity:0.7;stroke:#abd0e6;" x="622.526087" xlink:href="#me14d524e4d" y="241.707959"/>
     <use style="fill:#abd0e6;opacity:0.7;stroke:#abd0e6;" x="626.569565" xlink:href="#me14d524e4d" y="241.724634"/>
     <use style="fill:#abd0e6;opacity:0.7;stroke:#abd0e6;" x="630.613043" xlink:href="#me14d524e4d" y="241.792045"/>
     <use style="fill:#abd0e6;opacity:0.7;stroke:#abd0e6;" x="634.656522" xlink:href="#me14d524e4d" y="241.846516"/>
     <use style="fill:#abd0e6;opacity:0.7;stroke:#abd0e6;" x="638.7" xlink:href="#me14d524e4d" y="241.81061"/>
     <use style="fill:#abd0e6;opacity:0.7;stroke:#abd0e6;" x="642.743478" xlink:href="#me14d524e4d" y="241.833689"/>
     <use style="fill:#abd0e6;opacity:0.7;stroke:#abd0e6;" x="646.786957" xlink:href="#me14d524e4d" y="242.009604"/>
    </g>
   </g>
   <g id="line2d_33">
    <path clip-path="url(#p2e9661d450)" d="M 405.391304 44.443636 
L 408.794633 59.063788 
L 412.197961 72.607244 
L 415.60129 85.153297 
L 419.004618 96.7754 
L 422.407946 107.541598 
L 425.811275 117.514922 
L 429.214603 126.753765 
L 432.617932 135.312217 
L 436.02126 143.240384 
L 439.424588 150.584684 
L 442.827917 157.388116 
L 446.231245 163.690512 
L 449.634573 169.52877 
L 453.037902 174.937071 
L 456.44123 179.94708 
L 459.844559 184.588129 
L 463.247887 188.887389 
L 466.651215 192.870032 
L 470.540734 197.06376 
L 474.430252 200.90642 
L 478.31977 204.427399 
L 482.209288 207.653626 
L 486.098806 210.609777 
L 490.474514 213.640696 
L 494.850222 216.387703 
L 499.22593 218.877394 
L 504.087828 221.371164 
L 508.949726 223.606772 
L 513.811623 225.610946 
L 519.159711 227.576748 
L 524.993988 229.468213 
L 530.828265 231.127211 
L 537.148732 232.695175 
L 543.955389 234.152335 
L 551.248236 235.484984 
L 559.027272 236.685166 
L 567.778688 237.806833 
L 577.502483 238.819835 
L 588.198658 239.706006 
L 600.353402 240.485489 
L 614.452906 241.159376 
L 630.983358 241.720226 
L 648 242.116364 
L 648 242.116364 
" style="fill:none;stroke:#3787c0;stroke-linecap:square;stroke-width:3;"/>
   </g>
   <g id="patch_9">
    <path d="M 405.391304 252 
L 405.391304 34.56 
" style="fill:none;stroke:#1a1a1a;stroke-linecap:square;stroke-linejoin:miter;stroke-width:0.8;"/>
   </g>
   <g id="patch_10">
    <path d="M 648 252 
L 648 34.56 
" style="fill:none;stroke:#1a1a1a;stroke-linecap:square;stroke-linejoin:miter;stroke-width:0.8;"/>
   </g>
   <g id="patch_11">
    <path d="M 405.391304 252 
L 648 252 
" style="fill:none;stroke:#1a1a1a;stroke-linecap:square;stroke-linejoin:miter;stroke-width:0.8;"/>
   </g>
   <g id="patch_12">
    <path d="M 405.391304 34.56 
L 648 34.56 
" style="fill:none;stroke:#1a1a1a;stroke-linecap:square;stroke-linejoin:miter;stroke-width:0.8;"/>
   </g>
   <g id="text_34">
    <!-- Paris -->
    <g style="fill:#1a1a1a;" transform="translate(512.145652 28.56)scale(0.12 -0.12)">
     <use xlink:href="#DejaVuSans-50"/>
     <use x="60.240234" xlink:href="#DejaVuSans-61"/>
     <use x="121.519531" xlink:href="#DejaVuSans-72"/>
     <use x="162.632812" xlink:href="#DejaVuSans-69"/>
     <use x="190.416016" xlink:href="#DejaVuSans-73"/>
    </g>
   </g>
   <g id="legend_2">
    <g id="patch_13">
     <path d="M 554.7 57.238125 
L 641 57.238125 
Q 643 57.238125 643 55.238125 
L 643 41.56 
Q 643 39.56 641 39.56 
L 554.7 39.56 
Q 552.7 39.56 552.7 41.56 
L 552.7 55.238125 
Q 552.7 57.238125 554.7 57.238125 
z
" style="fill:#ffffff;opacity:0.8;stroke:#cccccc;stroke-linejoin:miter;"/>
    </g>
    <g id="line2d_34">
     <path d="M 556.7 47.658437 
L 576.7 47.658437 
" style="fill:none;stroke:#3787c0;stroke-linecap:square;stroke-width:3;"/>
    </g>
    <g id="line2d_35"/>
    <g id="text_35">
     <!-- soc $\tau = 0.6$ -->
     <defs>
      <path d="M 33.015625 40.375 
Q 26.375 40.375 22.484375 35.828125 
Q 18.609375 31.296875 18.609375 23.390625 
Q 18.609375 15.53125 22.484375 10.953125 
Q 26.375 6.390625 33.015625 6.390625 
Q 39.65625 6.390625 43.53125 10.953125 
Q 47.40625 15.53125 47.40625 23.390625 
Q 47.40625 31.296875 43.53125 35.828125 
Q 39.65625 40.375 33.015625 40.375 
z
M 52.59375 71.296875 
L 52.59375 62.3125 
Q 48.875 64.0625 45.09375 64.984375 
Q 41.3125 65.921875 37.59375 65.921875 
Q 27.828125 65.921875 22.671875 59.328125 
Q 17.53125 52.734375 16.796875 39.40625 
Q 19.671875 43.65625 24.015625 45.921875 
Q 28.375 48.1875 33.59375 48.1875 
Q 44.578125 48.1875 50.953125 41.515625 
Q 57.328125 34.859375 57.328125 23.390625 
Q 57.328125 12.15625 50.6875 5.359375 
Q 44.046875 -1.421875 33.015625 -1.421875 
Q 20.359375 -1.421875 13.671875 8.265625 
Q 6.984375 17.96875 6.984375 36.375 
Q 6.984375 53.65625 15.1875 63.9375 
Q 23.390625 74.21875 37.203125 74.21875 
Q 40.921875 74.21875 44.703125 73.484375 
Q 48.484375 72.75 52.59375 71.296875 
z
" id="DejaVuSans-36"/>
     </defs>
     <g style="fill:#1a1a1a;" transform="translate(584.7 51.158437)scale(0.1 -0.1)">
      <use transform="translate(0 0.78125)" xlink:href="#DejaVuSans-73"/>
      <use transform="translate(52.099609 0.78125)" xlink:href="#DejaVuSans-6f"/>
      <use transform="translate(113.28125 0.78125)" xlink:href="#DejaVuSans-63"/>
      <use transform="translate(168.261719 0.78125)" xlink:href="#DejaVuSans-20"/>
      <use transform="translate(200.048828 0.78125)" xlink:href="#DejaVuSans-Oblique-3c4"/>
      <use transform="translate(279.736328 0.78125)" xlink:href="#DejaVuSans-3d"/>
      <use transform="translate(383.007812 0.78125)" xlink:href="#DejaVuSans-30"/>
      <use transform="translate(446.630859 0.78125)" xlink:href="#DejaVuSans-2e"/>
      <use transform="translate(478.417969 0.78125)" xlink:href="#DejaVuSans-36"/>
     </g>
    </g>
   </g>
  </g>
 </g>
 <defs>
  <clipPath id="p8c0df0ba24">
   <rect height="217.44" width="242.608696" x="90" y="34.56"/>
  </clipPath>
  <clipPath id="p2e9661d450">
   <rect height="217.44" width="242.608696" x="405.391304" y="34.56"/>
  </clipPath>
 </defs>
</svg>
