<?xml version="1.0" encoding="UTF-8" standalone="no"?>
<!-- Created with Inkscape (http://www.inkscape.org/) -->
<svg
   xmlns:dc="http://purl.org/dc/elements/1.1/"
   xmlns:cc="http://web.resource.org/cc/"
   xmlns:rdf="http://www.w3.org/1999/02/22-rdf-syntax-ns#"
   xmlns:svg="http://www.w3.org/2000/svg"
   xmlns="http://www.w3.org/2000/svg"
   xmlns:sodipodi="http://sodipodi.sourceforge.net/DTD/sodipodi-0.dtd"
   xmlns:inkscape="http://www.inkscape.org/namespaces/inkscape"
   width="406.03"
   height="666.69"
   id="svg2"
   sodipodi:version="0.32"
   inkscape:version="0.45.1"
   version="1.0"
   sodipodi:docbase="/home/aoleg/diverse/wiki"
   sodipodi:docname="Measure_illustration.svg"
   inkscape:output_extension="org.inkscape.output.svg.inkscape"
   inkscape:export-filename="/home/aoleg/diverse/wiki/Measure_illustration.png"
   inkscape:export-xdpi="80.790276"
   inkscape:export-ydpi="80.790276">
  <defs
     id="defs4">
    <marker
       inkscape:stockid="Dot_m"
       orient="auto"
       refY="0"
       refX="0"
       id="Dot_m"
       style="overflow:visible">
      <path
         id="path3217"
         d="M -2.5,-1 C -2.5,1.76 -4.74,4 -7.5,4 C -10.26,4 -12.5,1.76 -12.5,-1 C -12.5,-3.76 -10.26,-6 -7.5,-6 C -4.74,-6 -2.5,-3.76 -2.5,-1 z "
         style="fill-rule:evenodd;stroke:#000000;stroke-width:1pt;marker-start:none;marker-end:none"
         transform="matrix(0.4,0,0,0.4,2.96,0.4)" />
    </marker>
    <marker
       inkscape:stockid="Dot_s"
       orient="auto"
       refY="0"
       refX="0"
       id="Dot_s"
       style="overflow:visible">
      <path
         id="path3220"
         d="M -2.5,-1 C -2.5,1.76 -4.74,4 -7.5,4 C -10.26,4 -12.5,1.76 -12.5,-1 C -12.5,-3.76 -10.26,-6 -7.5,-6 C -4.74,-6 -2.5,-3.76 -2.5,-1 z "
         style="fill-rule:evenodd;stroke:#000000;stroke-width:1pt;marker-start:none;marker-end:none"
         transform="matrix(0.2,0,0,0.2,1.48,0.2)" />
    </marker>
    <marker
       inkscape:stockid="Arrow2Lend"
       orient="auto"
       refY="0"
       refX="0"
       id="Arrow2Lend"
       style="overflow:visible">
      <path
         id="path3173"
         style="font-size:12px;fill-rule:evenodd;stroke-width:0.625;stroke-linejoin:round"
         d="M 8.7185878,4.0337352 L -2.2072895,0.016013256 L 8.7185884,-4.0017078 C 6.97309,-1.6296469 6.9831476,1.6157441 8.7185878,4.0337352 z "
         transform="matrix(-1.1,0,0,-1.1,-1.1,0)" />
    </marker>
    <marker
       inkscape:stockid="Dot_l"
       orient="auto"
       refY="0"
       refX="0"
       id="Dot_l"
       style="overflow:visible">
      <path
         id="path3214"
         d="M -2.5,-1 C -2.5,1.76 -4.74,4 -7.5,4 C -10.26,4 -12.5,1.76 -12.5,-1 C -12.5,-3.76 -10.26,-6 -7.5,-6 C -4.74,-6 -2.5,-3.76 -2.5,-1 z "
         style="fill-rule:evenodd;stroke:#000000;stroke-width:1pt;marker-start:none;marker-end:none"
         transform="matrix(0.8,0,0,0.8,5.92,0.8)" />
    </marker>
    <marker
       inkscape:stockid="Arrow2Lstart"
       orient="auto"
       refY="0"
       refX="0"
       id="Arrow2Lstart"
       style="overflow:visible">
      <path
         id="path3170"
         style="font-size:12px;fill-rule:evenodd;stroke-width:0.625;stroke-linejoin:round"
         d="M 8.7185878,4.0337352 L -2.2072895,0.016013256 L 8.7185884,-4.0017078 C 6.97309,-1.6296469 6.9831476,1.6157441 8.7185878,4.0337352 z "
         transform="matrix(1.1,0,0,1.1,1.1,0)" />
    </marker>
    <marker
       inkscape:stockid="Arrow1Mstart"
       orient="auto"
       refY="0"
       refX="0"
       id="Arrow1Mstart"
       style="overflow:visible">
      <path
         id="path3158"
         d="M 0,0 L 5,-5 L -12.5,0 L 5,5 L 0,0 z "
         style="fill-rule:evenodd;stroke:#000000;stroke-width:1pt;marker-start:none"
         transform="matrix(0.4,0,0,0.4,4,0)" />
    </marker>
    <marker
       inkscape:stockid="Arrow1Lstart"
       orient="auto"
       refY="0"
       refX="0"
       id="Arrow1Lstart"
       style="overflow:visible">
      <path
         id="path3152"
         d="M 0,0 L 5,-5 L -12.5,0 L 5,5 L 0,0 z "
         style="fill-rule:evenodd;stroke:#000000;stroke-width:1pt;marker-start:none"
         transform="matrix(0.8,0,0,0.8,10,0)" />
    </marker>
  </defs>
  <sodipodi:namedview
     id="base"
     pagecolor="#ffffff"
     bordercolor="#666666"
     borderopacity="1.0"
     gridtolerance="10000"
     guidetolerance="10"
     objecttolerance="10"
     inkscape:pageopacity="0.0"
     inkscape:pageshadow="2"
     inkscape:zoom="0.49497475"
     inkscape:cx="462.71962"
     inkscape:cy="380.4721"
     inkscape:document-units="px"
     inkscape:current-layer="layer1"
     showgrid="false"
     height="666.69px"
     width="406.03px"
     inkscape:window-width="962"
     inkscape:window-height="737"
     inkscape:window-x="0"
     inkscape:window-y="0" />
  <metadata
     id="metadata7">
    <rdf:RDF>
      <cc:Work
         rdf:about="">
        <dc:format>image/svg+xml</dc:format>
        <dc:type
           rdf:resource="http://purl.org/dc/dcmitype/StillImage" />
      </cc:Work>
    </rdf:RDF>
  </metadata>
  <g
     inkscape:label="Layer 1"
     inkscape:groupmode="layer"
     id="layer1"
     transform="translate(-171.7857,-126.64789)">
    <path
       style="fill:none;fill-opacity:0.75;fill-rule:evenodd;stroke:#000000;stroke-width:4.5;stroke-linecap:butt;stroke-linejoin:miter;marker-start:url(#Arrow2Lstart);stroke-miterlimit:4;stroke-dasharray:none;stroke-opacity:1"
       d="M 495.13347,144.71656 L 495.13347,780.26985"
       id="path2160"
       sodipodi:nodetypes="cc" />
    <path
       sodipodi:type="arc"
       style="opacity:1;fill:#00e0e0;fill-opacity:0.35195528;fill-rule:evenodd;stroke:#0c9aff;stroke-width:5;stroke-linecap:round;stroke-linejoin:round;stroke-miterlimit:4;stroke-dasharray:none;stroke-dashoffset:0;stroke-opacity:1;marker-start:none"
       id="path3143"
       sodipodi:cx="150.71428"
       sodipodi:cy="534.50507"
       sodipodi:rx="112.14286"
       sodipodi:ry="252.14285"
       d="M 262.85714 534.50507 A 112.14286 252.14285 0 1 1  38.571419,534.50507 A 112.14286 252.14285 0 1 1  262.85714 534.50507 z"
       transform="translate(150,-35.714285)" />
    <path
       sodipodi:type="arc"
       style="opacity:1;fill:#00e0e0;fill-opacity:0.5977654;fill-rule:evenodd;stroke:#0c9aff;stroke-width:5;stroke-linecap:round;stroke-linejoin:round;stroke-miterlimit:4;stroke-dasharray:none;stroke-dashoffset:0;stroke-opacity:1"
       id="path3145"
       sodipodi:cx="165.71428"
       sodipodi:cy="550.2193"
       sodipodi:rx="64.285713"
       sodipodi:ry="170.71428"
       d="M 229.99999 550.2193 A 64.285713 170.71428 0 1 1  101.42857,550.2193 A 64.285713 170.71428 0 1 1  229.99999 550.2193 z"
       transform="translate(152.85714,-11.428571)" />
    <path
       sodipodi:type="arc"
       style="opacity:1;fill:#00cde0;fill-opacity:1;fill-rule:evenodd;stroke:#0c9aff;stroke-width:5;stroke-linecap:round;stroke-linejoin:round;stroke-miterlimit:4;stroke-dasharray:none;stroke-dashoffset:0;stroke-opacity:1"
       id="path3147"
       sodipodi:cx="162.85715"
       sodipodi:cy="563.79077"
       sodipodi:rx="35.714287"
       sodipodi:ry="95.714287"
       d="M 198.57143 563.79077 A 35.714287 95.714287 0 1 1  127.14286,563.79077 A 35.714287 95.714287 0 1 1  198.57143 563.79077 z"
       transform="translate(157.14286,-11.428571)" />
    <text
       xml:space="preserve"
       style="font-size:72px;font-style:oblique;font-variant:normal;font-weight:normal;font-stretch:normal;text-align:start;line-height:100%;writing-mode:lr-tb;text-anchor:start;fill:#000000;fill-opacity:1;stroke:none;stroke-width:1px;stroke-linecap:butt;stroke-linejoin:miter;stroke-opacity:1;font-family:Bitstream Vera Sans"
       x="514.65857"
       y="182.81033"
       id="text3351"
       sodipodi:linespacing="100%"><tspan
         sodipodi:role="line"
         id="tspan3353"
         x="514.65857"
         y="182.81033">∞</tspan></text>
    <text
       xml:space="preserve"
       style="font-size:56px;font-style:oblique;font-variant:normal;font-weight:normal;font-stretch:normal;text-align:start;line-height:100%;writing-mode:lr-tb;text-anchor:start;fill:#000000;fill-opacity:1;stroke:none;stroke-width:1px;stroke-linecap:butt;stroke-linejoin:miter;stroke-opacity:1;font-family:Bitstream Vera Sans"
       x="521.47321"
       y="695.25177"
       id="text3355"
       sodipodi:linespacing="100%"><tspan
         sodipodi:role="line"
         id="tspan3357"
         x="521.47321"
         y="695.25177">0</tspan></text>
    <path
       sodipodi:type="arc"
       style="opacity:1;fill:#000000;fill-opacity:1;fill-rule:evenodd;stroke:none;stroke-width:5;stroke-linecap:round;stroke-linejoin:round;stroke-miterlimit:4;stroke-dasharray:none;stroke-dashoffset:0;stroke-opacity:1"
       id="path3359"
       sodipodi:cx="481.42856"
       sodipodi:cy="685.2193"
       sodipodi:rx="12.857142"
       sodipodi:ry="12.857142"
       d="M 494.2857 685.2193 A 12.857142 12.857142 0 1 1  468.57142,685.2193 A 12.857142 12.857142 0 1 1  494.2857 685.2193 z"
       transform="matrix(0.6599267,0,0,0.6599267,178.09341,230.08106)" />
    <path
       style="fill:none;fill-opacity:0.75;fill-rule:evenodd;stroke:#000000;stroke-width:2;stroke-linecap:butt;stroke-linejoin:miter;marker-start:url(#Dot_s);marker-end:url(#Arrow2Lend);stroke-miterlimit:4;stroke-dasharray:none;stroke-opacity:1"
       d="M 322.16389,512.06993 C 380.95069,473.08008 436.62473,479.99888 491.48986,508.10984"
       id="path3361"
       sodipodi:nodetypes="cs" />
    <path
       style="fill:none;fill-opacity:0.75;fill-rule:evenodd;stroke:#000000;stroke-width:2;stroke-linecap:butt;stroke-linejoin:miter;marker-start:url(#Dot_s);marker-end:url(#Arrow2Lend);stroke-miterlimit:4;stroke-dasharray:none;stroke-opacity:1"
       d="M 312.9673,416.90636 C 371.7541,377.91651 436.39696,393.56954 491.26209,421.6805"
       id="path3369"
       sodipodi:nodetypes="cs" />
    <path
       style="fill:none;fill-opacity:0.75;fill-rule:evenodd;stroke:#000000;stroke-width:2;stroke-linecap:butt;stroke-linejoin:miter;marker-start:url(#Dot_s);marker-end:url(#Arrow2Lend);stroke-miterlimit:4;stroke-dasharray:none;stroke-opacity:1"
       d="M 315.82443,296.90636 C 374.61123,257.91651 437.35634,267.50862 492.22147,295.61958"
       id="path3371"
       sodipodi:nodetypes="cs" />
  </g>
</svg>
